<svg width="589" height="121" viewBox="0 0 589 121" fill="none" xmlns="http://www.w3.org/2000/svg">
<g clip-path="url(#clip0_2_1311)">
<g filter="url(#filter0_d_2_1311)">
<mask id="path-1-outside-1_2_1311" maskUnits="userSpaceOnUse" x="2" y="29" width="583" height="63" fill="black">
<rect fill="white" x="2" y="29" width="583" height="63"/>
<path d="M50.49 39.91L29.7 69.16H71.19L50.49 39.91ZM49.05 31.36H51.93L94.14 89.23H85.86L75.06 74.02H25.83L15.03 89.23H6.84L49.05 31.36ZM148.306 62.59V83.2H196.006C198.946 83.2 201.406 82.21 203.386 80.23C205.366 78.25 206.356 75.82 206.356 72.94C206.356 70 205.366 67.54 203.386 65.56C201.406 63.58 198.946 62.59 196.006 62.59H148.306ZM148.306 37.39V58H194.746C197.686 58 200.146 57.01 202.126 55.03C204.106 53.05 205.096 50.62 205.096 47.74C205.096 44.8 204.106 42.34 202.126 40.36C200.146 38.38 197.686 37.39 194.746 37.39H148.306ZM140.926 31.36H197.356C201.616 31.36 205.186 32.83 208.066 35.77C211.006 38.65 212.476 42.22 212.476 46.48C212.476 49.6 211.606 52.39 209.866 54.85C208.186 57.25 205.966 58.96 203.206 59.98C206.326 60.88 208.846 62.62 210.766 65.2C212.746 67.72 213.736 70.69 213.736 74.11C213.736 78.37 212.266 81.97 209.326 84.91C206.446 87.79 202.876 89.23 198.616 89.23H140.926V31.36ZM289.256 37.39C282.836 37.39 277.406 39.61 272.966 44.05C268.586 48.43 266.396 53.86 266.396 60.34C266.396 66.76 268.586 72.19 272.966 76.63C277.406 81.01 282.836 83.2 289.256 83.2H308.606C315.086 83.2 320.516 81.01 324.896 76.63C329.336 72.19 331.556 66.76 331.556 60.34C331.556 53.86 329.336 48.43 324.896 44.05C320.516 39.61 315.086 37.39 308.606 37.39H289.256ZM287.996 31.36H309.956C318.176 31.36 325.046 34.15 330.566 39.73C336.146 45.25 338.936 52.12 338.936 60.34C338.936 68.5 336.146 75.37 330.566 80.95C325.046 86.47 318.176 89.23 309.956 89.23H287.996C279.776 89.23 272.876 86.47 267.296 80.95C261.776 75.37 259.016 68.5 259.016 60.34C259.016 52.12 261.776 45.25 267.296 39.73C272.876 34.15 279.776 31.36 287.996 31.36ZM387.389 31.36H394.769V60.34C394.769 66.76 396.959 72.19 401.339 76.63C405.779 81.01 411.209 83.2 417.629 83.2H432.569C439.049 83.2 444.479 81.01 448.859 76.63C453.299 72.19 455.519 66.76 455.519 60.34V31.36H462.899V60.34C462.899 68.5 460.109 75.37 454.529 80.95C449.009 86.47 442.139 89.23 433.919 89.23H416.369C408.149 89.23 401.249 86.47 395.669 80.95C390.149 75.37 387.389 68.5 387.389 60.34V31.36ZM510.488 31.36H582.038V37.39H549.908V89.23H542.618V37.39H510.488V31.36Z"/>
</mask>
<path d="M50.49 39.91L29.7 69.16H71.19L50.49 39.91ZM49.05 31.36H51.93L94.14 89.23H85.86L75.06 74.02H25.83L15.03 89.23H6.84L49.05 31.36ZM148.306 62.59V83.2H196.006C198.946 83.2 201.406 82.21 203.386 80.23C205.366 78.25 206.356 75.82 206.356 72.94C206.356 70 205.366 67.54 203.386 65.56C201.406 63.58 198.946 62.59 196.006 62.59H148.306ZM148.306 37.39V58H194.746C197.686 58 200.146 57.01 202.126 55.03C204.106 53.05 205.096 50.62 205.096 47.74C205.096 44.8 204.106 42.34 202.126 40.36C200.146 38.38 197.686 37.39 194.746 37.39H148.306ZM140.926 31.36H197.356C201.616 31.36 205.186 32.83 208.066 35.77C211.006 38.65 212.476 42.22 212.476 46.48C212.476 49.6 211.606 52.39 209.866 54.85C208.186 57.25 205.966 58.96 203.206 59.98C206.326 60.88 208.846 62.62 210.766 65.2C212.746 67.72 213.736 70.69 213.736 74.11C213.736 78.37 212.266 81.97 209.326 84.91C206.446 87.79 202.876 89.23 198.616 89.23H140.926V31.36ZM289.256 37.39C282.836 37.39 277.406 39.61 272.966 44.05C268.586 48.43 266.396 53.86 266.396 60.34C266.396 66.76 268.586 72.19 272.966 76.63C277.406 81.01 282.836 83.2 289.256 83.2H308.606C315.086 83.2 320.516 81.01 324.896 76.63C329.336 72.19 331.556 66.76 331.556 60.34C331.556 53.86 329.336 48.43 324.896 44.05C320.516 39.61 315.086 37.39 308.606 37.39H289.256ZM287.996 31.36H309.956C318.176 31.36 325.046 34.15 330.566 39.73C336.146 45.25 338.936 52.12 338.936 60.34C338.936 68.5 336.146 75.37 330.566 80.95C325.046 86.47 318.176 89.23 309.956 89.23H287.996C279.776 89.23 272.876 86.47 267.296 80.95C261.776 75.37 259.016 68.5 259.016 60.34C259.016 52.12 261.776 45.25 267.296 39.73C272.876 34.15 279.776 31.36 287.996 31.36ZM387.389 31.36H394.769V60.34C394.769 66.76 396.959 72.19 401.339 76.63C405.779 81.01 411.209 83.2 417.629 83.2H432.569C439.049 83.2 444.479 81.01 448.859 76.63C453.299 72.19 455.519 66.76 455.519 60.34V31.36H462.899V60.34C462.899 68.5 460.109 75.37 454.529 80.95C449.009 86.47 442.139 89.23 433.919 89.23H416.369C408.149 89.23 401.249 86.47 395.669 80.95C390.149 75.37 387.389 68.5 387.389 60.34V31.36ZM510.488 31.36H582.038V37.39H549.908V89.23H542.618V37.39H510.488V31.36Z" fill="url(#paint0_linear_2_1311)"/>
<path d="M50.49 39.91L52.1225 38.7547L50.4935 36.4528L48.8598 38.7513L50.49 39.91ZM29.7 69.16L28.0698 68.0013L25.8247 71.16H29.7V69.16ZM71.19 69.16V71.16H75.0555L72.8225 68.0047L71.19 69.16ZM49.05 31.36V29.36H48.0333L47.4342 30.1814L49.05 31.36ZM51.93 31.36L53.5458 30.1814L52.9467 29.36H51.93V31.36ZM94.14 89.23V91.23H98.0743L95.7558 88.0514L94.14 89.23ZM85.86 89.23L84.2293 90.3879L84.8272 91.23H85.86V89.23ZM75.06 74.02L76.6907 72.8621L76.0928 72.02H75.06V74.02ZM25.83 74.02V72.02H24.7972L24.1993 72.8621L25.83 74.02ZM15.03 89.23V91.23H16.0628L16.6607 90.3879L15.03 89.23ZM6.84 89.23L5.22416 88.0514L2.90572 91.23H6.84V89.23ZM48.8598 38.7513L28.0698 68.0013L31.3302 70.3187L52.1202 41.0687L48.8598 38.7513ZM29.7 71.16H71.19V67.16H29.7V71.16ZM72.8225 68.0047L52.1225 38.7547L48.8575 41.0653L69.5575 70.3153L72.8225 68.0047ZM49.05 33.36H51.93V29.36H49.05V33.36ZM50.3142 32.5386L92.5242 90.4086L95.7558 88.0514L53.5458 30.1814L50.3142 32.5386ZM94.14 87.23H85.86V91.23H94.14V87.23ZM87.4907 88.0721L76.6907 72.8621L73.4293 75.1779L84.2293 90.3879L87.4907 88.0721ZM75.06 72.02H25.83V76.02H75.06V72.02ZM24.1993 72.8621L13.3993 88.0721L16.6607 90.3879L27.4607 75.1779L24.1993 72.8621ZM15.03 87.23H6.84V91.23H15.03V87.23ZM8.45584 90.4086L50.6658 32.5386L47.4342 30.1814L5.22416 88.0514L8.45584 90.4086ZM148.306 62.59V60.59H146.306V62.59H148.306ZM148.306 83.2H146.306V85.2H148.306V83.2ZM203.386 80.23L201.972 78.8158L203.386 80.23ZM148.306 37.39V35.39H146.306V37.39H148.306ZM148.306 58H146.306V60H148.306V58ZM202.126 55.03L200.712 53.6158L202.126 55.03ZM140.926 31.36V29.36H138.926V31.36H140.926ZM208.066 35.77L206.637 37.1696L206.652 37.1843L206.666 37.1987L208.066 35.77ZM209.866 54.85L208.233 53.6951L208.227 53.7031L209.866 54.85ZM203.206 59.98L202.513 58.104L196.802 60.2143L202.652 61.9016L203.206 59.98ZM210.766 65.2L209.161 66.394L209.177 66.415L209.193 66.4356L210.766 65.2ZM209.326 84.91L207.912 83.4958L209.326 84.91ZM140.926 89.23H138.926V91.23H140.926V89.23ZM146.306 62.59V83.2H150.306V62.59H146.306ZM148.306 85.2H196.006V81.2H148.306V85.2ZM196.006 85.2C199.447 85.2 202.425 84.0196 204.8 81.6442L201.972 78.8158C200.387 80.4004 198.445 81.2 196.006 81.2V85.2ZM204.8 81.6442C207.167 79.2773 208.356 76.3335 208.356 72.94H204.356C204.356 75.3065 203.565 77.2227 201.972 78.8158L204.8 81.6442ZM208.356 72.94C208.356 69.499 207.176 66.5212 204.8 64.1458L201.972 66.9742C203.556 68.5588 204.356 70.5009 204.356 72.94H208.356ZM204.8 64.1458C202.425 61.7704 199.447 60.59 196.006 60.59V64.59C198.445 64.59 200.387 65.3896 201.972 66.9742L204.8 64.1458ZM196.006 60.59H148.306V64.59H196.006V60.59ZM146.306 37.39V58H150.306V37.39H146.306ZM148.306 60H194.746V56H148.306V60ZM194.746 60C198.187 60 201.165 58.8196 203.54 56.4442L200.712 53.6158C199.127 55.2004 197.185 56 194.746 56V60ZM203.54 56.4442C205.907 54.0773 207.096 51.1335 207.096 47.74H203.096C203.096 50.1065 202.305 52.0227 200.712 53.6158L203.54 56.4442ZM207.096 47.74C207.096 44.299 205.916 41.3212 203.54 38.9458L200.712 41.7742C202.296 43.3588 203.096 45.3009 203.096 47.74H207.096ZM203.54 38.9458C201.165 36.5704 198.187 35.39 194.746 35.39V39.39C197.185 39.39 199.127 40.1896 200.712 41.7742L203.54 38.9458ZM194.746 35.39H148.306V39.39H194.746V35.39ZM140.926 33.36H197.356V29.36H140.926V33.36ZM197.356 33.36C201.1 33.36 204.148 34.6284 206.637 37.1696L209.495 34.3704C206.224 31.0316 202.132 29.36 197.356 29.36V33.36ZM206.666 37.1987C209.208 39.688 210.476 42.7364 210.476 46.48H214.476C214.476 41.7036 212.804 37.612 209.465 34.3413L206.666 37.1987ZM210.476 46.48C210.476 49.2019 209.725 51.5853 208.233 53.6951L211.499 56.0049C213.487 53.1946 214.476 49.9981 214.476 46.48H210.476ZM208.227 53.7031C206.782 55.7679 204.893 57.2245 202.513 58.104L203.899 61.856C207.039 60.6955 209.59 58.7321 211.504 55.9969L208.227 53.7031ZM202.652 61.9016C205.356 62.6817 207.505 64.1685 209.161 66.394L212.37 64.006C210.187 61.0715 207.296 59.0783 203.76 58.0583L202.652 61.9016ZM209.193 66.4356C210.877 68.5788 211.736 71.1059 211.736 74.11H215.736C215.736 70.2741 214.615 66.8612 212.339 63.9644L209.193 66.4356ZM211.736 74.11C211.736 77.8542 210.466 80.9411 207.912 83.4958L210.74 86.3242C214.065 82.9989 215.736 78.8858 215.736 74.11H211.736ZM207.912 83.4958C205.426 85.9819 202.373 87.23 198.616 87.23V91.23C203.379 91.23 207.466 89.5981 210.74 86.3242L207.912 83.4958ZM198.616 87.23H140.926V91.23H198.616V87.23ZM142.926 89.23V31.36H138.926V89.23H142.926ZM272.966 44.05L274.38 45.4642L272.966 44.05ZM272.966 76.63L271.542 78.0346L271.552 78.0442L271.561 78.0538L272.966 76.63ZM324.896 76.63L326.31 78.0442L324.896 76.63ZM324.896 44.05L323.472 45.4546L323.482 45.4642L323.491 45.4738L324.896 44.05ZM330.566 39.73L329.144 41.1365L329.152 41.1442L329.159 41.1518L330.566 39.73ZM267.296 80.95L265.874 82.3565L265.882 82.3642L265.889 82.3718L267.296 80.95ZM289.256 35.39C282.319 35.39 276.376 37.8114 271.552 42.6358L274.38 45.4642C278.436 41.4086 283.353 39.39 289.256 39.39V35.39ZM271.552 42.6358C266.778 47.4097 264.396 53.3568 264.396 60.34H268.396C268.396 54.3632 270.394 49.4503 274.38 45.4642L271.552 42.6358ZM264.396 60.34C264.396 67.2685 266.781 73.2082 271.542 78.0346L274.39 75.2254C270.391 71.1718 268.396 66.2515 268.396 60.34H264.396ZM271.561 78.0538C276.388 82.8149 282.327 85.2 289.256 85.2V81.2C283.344 81.2 278.424 79.2051 274.37 75.2062L271.561 78.0538ZM289.256 85.2H308.606V81.2H289.256V85.2ZM308.606 85.2C315.589 85.2 321.536 82.8181 326.31 78.0442L323.482 75.2158C319.495 79.2019 314.583 81.2 308.606 81.2V85.2ZM326.31 78.0442C331.134 73.2198 333.556 67.2771 333.556 60.34H329.556C329.556 66.2429 327.537 71.1602 323.482 75.2158L326.31 78.0442ZM333.556 60.34C333.556 53.3482 331.138 47.3981 326.3 42.6262L323.491 45.4738C327.534 49.4619 329.556 54.3718 329.556 60.34H333.556ZM326.32 42.6454C321.548 37.8082 315.598 35.39 308.606 35.39V39.39C314.574 39.39 319.484 41.4118 323.472 45.4546L326.32 42.6454ZM308.606 35.39H289.256V39.39H308.606V35.39ZM287.996 33.36H309.956V29.36H287.996V33.36ZM309.956 33.36C317.67 33.36 324.019 35.9559 329.144 41.1365L331.988 38.3234C326.073 32.3441 318.682 29.36 309.956 29.36V33.36ZM329.159 41.1518C334.34 46.2768 336.936 52.626 336.936 60.34H340.936C340.936 51.614 337.952 44.2232 331.972 38.3082L329.159 41.1518ZM336.936 60.34C336.936 67.9897 334.342 74.3449 329.152 79.5358L331.98 82.3642C337.949 76.3951 340.936 69.0103 340.936 60.34H336.936ZM329.152 79.5358C324.028 84.6592 317.677 87.23 309.956 87.23V91.23C318.675 91.23 326.063 88.2808 331.98 82.3642L329.152 79.5358ZM309.956 87.23H287.996V91.23H309.956V87.23ZM287.996 87.23C280.275 87.23 273.889 84.6587 268.702 79.5282L265.889 82.3718C271.863 88.2813 279.277 91.23 287.996 91.23V87.23ZM268.718 79.5434C263.584 74.3541 261.016 67.9966 261.016 60.34H257.016C257.016 69.0034 259.967 76.3859 265.874 82.3565L268.718 79.5434ZM261.016 60.34C261.016 52.6192 263.587 46.2676 268.71 41.1442L265.882 38.3158C259.965 44.2324 257.016 51.6208 257.016 60.34H261.016ZM268.71 41.1442C273.898 35.9564 280.282 33.36 287.996 33.36V29.36C279.27 29.36 271.854 32.3436 265.882 38.3158L268.71 41.1442ZM387.389 31.36V29.36H385.389V31.36H387.389ZM394.769 31.36H396.769V29.36H394.769V31.36ZM401.339 76.63L399.915 78.0346L399.925 78.0442L399.934 78.0538L401.339 76.63ZM448.859 76.63L450.273 78.0442L448.859 76.63ZM455.519 31.36V29.36H453.519V31.36H455.519ZM462.899 31.36H464.899V29.36H462.899V31.36ZM395.669 80.95L394.247 82.3565L394.255 82.3642L394.262 82.3718L395.669 80.95ZM387.389 33.36H394.769V29.36H387.389V33.36ZM392.769 31.36V60.34H396.769V31.36H392.769ZM392.769 60.34C392.769 67.2685 395.154 73.2082 399.915 78.0346L402.763 75.2254C398.764 71.1718 396.769 66.2515 396.769 60.34H392.769ZM399.934 78.0538C404.761 82.8149 410.7 85.2 417.629 85.2V81.2C411.717 81.2 406.797 79.2051 402.743 75.2062L399.934 78.0538ZM417.629 85.2H432.569V81.2H417.629V85.2ZM432.569 85.2C439.552 85.2 445.499 82.8181 450.273 78.0442L447.445 75.2158C443.459 79.2019 438.546 81.2 432.569 81.2V85.2ZM450.273 78.0442C455.097 73.2198 457.519 67.2771 457.519 60.34H453.519C453.519 66.2429 451.5 71.1602 447.445 75.2158L450.273 78.0442ZM457.519 60.34V31.36H453.519V60.34H457.519ZM455.519 33.36H462.899V29.36H455.519V33.36ZM460.899 31.36V60.34H464.899V31.36H460.899ZM460.899 60.34C460.899 67.9897 458.306 74.3449 453.115 79.5358L455.943 82.3642C461.912 76.3951 464.899 69.0103 464.899 60.34H460.899ZM453.115 79.5358C447.991 84.6592 441.64 87.23 433.919 87.23V91.23C442.638 91.23 450.026 88.2808 455.943 82.3642L453.115 79.5358ZM433.919 87.23H416.369V91.23H433.919V87.23ZM416.369 87.23C408.648 87.23 402.262 84.6587 397.075 79.5282L394.262 82.3718C400.236 88.2813 407.65 91.23 416.369 91.23V87.23ZM397.091 79.5434C391.957 74.3541 389.389 67.9966 389.389 60.34H385.389C385.389 69.0034 388.341 76.3859 394.247 82.3565L397.091 79.5434ZM389.389 60.34V31.36H385.389V60.34H389.389ZM510.488 31.36V29.36H508.488V31.36H510.488ZM582.038 31.36H584.038V29.36H582.038V31.36ZM582.038 37.39V39.39H584.038V37.39H582.038ZM549.908 37.39V35.39H547.908V37.39H549.908ZM549.908 89.23V91.23H551.908V89.23H549.908ZM542.618 89.23H540.618V91.23H542.618V89.23ZM542.618 37.39H544.618V35.39H542.618V37.39ZM510.488 37.39H508.488V39.39H510.488V37.39ZM510.488 33.36H582.038V29.36H510.488V33.36ZM580.038 31.36V37.39H584.038V31.36H580.038ZM582.038 35.39H549.908V39.39H582.038V35.39ZM547.908 37.39V89.23H551.908V37.39H547.908ZM549.908 87.23H542.618V91.23H549.908V87.23ZM544.618 89.23V37.39H540.618V89.23H544.618ZM542.618 35.39H510.488V39.39H542.618V35.39ZM512.488 37.39V31.36H508.488V37.39H512.488Z" fill="url(#paint1_linear_2_1311)" mask="url(#path-1-outside-1_2_1311)"/>
</g>
</g>
<defs>
<filter id="filter0_d_2_1311" x="2.90576" y="29.36" width="595.133" height="71.87" filterUnits="userSpaceOnUse" color-interpolation-filters="sRGB">
<feFlood flood-opacity="0" result="BackgroundImageFix"/>
<feColorMatrix in="SourceAlpha" type="matrix" values="0 0 0 0 0 0 0 0 0 0 0 0 0 0 0 0 0 0 127 0" result="hardAlpha"/>
<feOffset dx="10" dy="6"/>
<feGaussianBlur stdDeviation="2"/>
<feColorMatrix type="matrix" values="0 0 0 0 0 0 0 0 0 0 0 0 0 0 0 0 0 0 1 0"/>
<feBlend mode="normal" in2="BackgroundImageFix" result="effect1_dropShadow_2_1311"/>
<feBlend mode="normal" in="SourceGraphic" in2="effect1_dropShadow_2_1311" result="shape"/>
</filter>
<linearGradient id="paint0_linear_2_1311" x1="294.5" y1="65.5" x2="294.5" y2="90.5" gradientUnits="userSpaceOnUse">
<stop stop-color="white"/>
<stop offset="1" stop-color="white" stop-opacity="0"/>
</linearGradient>
<linearGradient id="paint1_linear_2_1311" x1="294.5" y1="65" x2="294.5" y2="102" gradientUnits="userSpaceOnUse">
<stop stop-color="white"/>
<stop offset="0.725268" stop-color="white" stop-opacity="0"/>
</linearGradient>
<clipPath id="clip0_2_1311">
<rect width="589" height="121" fill="white"/>
</clipPath>
</defs>
</svg>
