<svg width="158" height="157" viewBox="0 0 158 157" fill="none" xmlns="http://www.w3.org/2000/svg">
<path d="M60.2744 108.129L63.166 94.745L64.8261 81.8063L63.166 70.1532L61.2943 64.5708" stroke="white" stroke-width="1.08501" stroke-linecap="round" stroke-linejoin="round"/>
<path d="M72.5674 119.982L74.3305 106.919L76.1641 93.7251L77.6072 80.6126L78.5241 71.5962" stroke="white" stroke-width="1.08501" stroke-linecap="round" stroke-linejoin="round"/>
<path d="M104.793 73.5603L105.341 86.2116L106.176 99.1613L107.044 112.013L107.169 124.399L108.221 137.12L107.538 148.877L106.257 160.204L94.8594 167.257L81.5029 161.175L74.5208 155.202L66.9366 149.674L58.8423 144.531L49.5709 140.061L41.7316 135.059L31.9014 131.071L21.7782 127.312L13.0384 123.048L12.2301 111.78L13.2934 99.6115L14.3404 87.3563L14.4001 75.4103L13.7762 63.6271L13.7383 51.4965L11.8774 41.0261" stroke="white" stroke-width="1.08501" stroke-linecap="round" stroke-linejoin="round"/>
<path d="M114.981 106.691L115.54 119.223L116.527 131.853L116.798 144.027L115.252 155.197L113.511 166.117L105.308 171.564L102.975 182.067L102.064 190.161" stroke="white" stroke-width="1.08501" stroke-linecap="round" stroke-linejoin="round"/>
<path d="M14.0908 157.73L14.4272 145.35" stroke="white" stroke-width="1.08501" stroke-linecap="round" stroke-linejoin="round"/>
<path d="M114.422 69.573L114.959 81.7685L114.764 94.2028L114.981 106.691L107.044 112.013L94.8646 118.203L82.3706 112.165L74.3307 106.919L69.09 100.599L63.1658 94.7453L55.2995 89.8681L45.3066 86.0164L36.2847 81.8607L25.2175 78.6437L14.3999 75.4104L2.76855 72.2475" stroke="white" stroke-width="1.08501" stroke-linecap="round" stroke-linejoin="round"/>
<path d="M1 35.612L11.8772 41.0262L21.0565 38.8725L30.9139 34.0714L40.6301 28.4075L50.2108 21.5774L59.7155 16.749L68.5909 22.0114L77.602 30.4256L86.6998 37.5434L95.8954 43.5977L105.199 50.6178L114.628 55.6522L124.22 57.4316L133.958 59.6777L141.558 55.3268L143.359 54.2959L152.604 50.4768L161.734 46.3265L170.788 40.576L179.078 34.603L188.675 37.8363" stroke="white" stroke-width="1.08501" stroke-linecap="round" stroke-linejoin="round"/>
<path d="M5.03043 152.945L4.96533 140.912L5.25831 129.742" stroke="white" stroke-width="1.08501" stroke-linecap="round" stroke-linejoin="round"/>
<path d="M186.342 73.0776L185.924 84.8013L185.778 96.4217L185.93 107.934L185.441 119.332L186.537 130.638L184.997 141.819L185.138 152.815L177.282 158.148L169.687 164.344L159.976 167.159L149.907 169.595L139.301 171.358L129.357 174.526" stroke="white" stroke-width="1.08501" stroke-linecap="round" stroke-linejoin="round"/>
<path d="M39.1929 17.6602L50.2112 21.577L59.0811 26.5192L68.0922 34.1795L77.1955 41.8287L86.391 46.4781L95.8957 43.5973L105.259 41.845L114.498 38.0312L123.623 33.3549L132.629 29.1721L137.75 25.1901" stroke="white" stroke-width="1.08501" stroke-linecap="round" stroke-linejoin="round"/>
<path d="M30.4312 22.7437L40.6302 28.4074L49.4677 32.243L58.4896 40.5162L67.5712 45.9141L77.1952 41.829L86.7 37.5433L96.0745 32.9537L105.335 28.7004L114.466 25.619L123.623 33.3551L132.9 39.8869L142.356 42.518L151.964 44.661L161.734 46.3264L169.232 46.8907" stroke="white" stroke-width="1.08501" stroke-linecap="round" stroke-linejoin="round"/>
<path d="M133.193 145.556L132.943 157.15" stroke="white" stroke-width="1.08501" stroke-linecap="round" stroke-linejoin="round"/>
<path d="M11.8774 41.0261L22.2014 46.1691L32.3951 51.1657L42.2687 55.8746L45.4261 57.3556L52.0556 60.4696L55.9833 62.2111L61.2945 64.571L64.8478 66.166L70.7666 68.8188L78.5245 71.5965L85.4089 70.6145L95.3314 65.4227L105.058 68.5151L114.829 66.7844L123.195 64.1316L124.459 63.7355L132.135 62.694" stroke="white" stroke-width="1.08501" stroke-linecap="round" stroke-linejoin="round"/>
<path d="M94.9081 188.506L84.7469 183.157L76.6581 177.64L74.8028 166.866L74.5207 155.202L73.4031 143.809L66.4915 138.021L65.8948 126.313L66.8387 113.792L60.2744 108.129" stroke="white" stroke-width="1.08501" stroke-linecap="round" stroke-linejoin="round"/>
<path d="M188.675 37.8362L189.255 49.2884L190.221 61.2507L186.342 73.0774L178.546 76.658L169.595 80.6617L158.924 84.0415L150.325 88.4087L141.531 92.8085L134.153 97.9676L124.16 102.085L114.98 106.691" stroke="white" stroke-width="1.08501" stroke-linecap="round" stroke-linejoin="round"/>
<path d="M23.1504 161.175L22.9334 149.788L22.3638 138.601L21.7778 127.312L22.9063 115.171L24.7182 102.649L25.4832 90.4865L25.2174 78.6435L23.975 67.0772L24.1812 54.8166L22.201 46.1689" stroke="white" stroke-width="1.08501" stroke-linecap="round" stroke-linejoin="round"/>
<path d="M1 35.6119L11.5898 31.4509L21.0565 38.8724L29.9156 44.6772L38.8833 50.6991L39.6754 51.1657L47.954 56.0644L49.7063 57.1278L57.1441 61.6414L67.0231 56.7751L76.7611 50.775L86.3906 46.4783L95.7109 52.2832L105.151 56.9053L114.731 60.3177L124.458 63.7355L133.958 59.6776L141.184 59.0049L150.607 54.9524L159.868 50.9866L169.231 46.8907L179.024 42.4095L188.675 37.8362" stroke="white" stroke-width="1.08501" stroke-linecap="round" stroke-linejoin="round"/>
<path d="M13.0382 123.048L2.76318 118.447" stroke="white" stroke-width="1.08501" stroke-linecap="round" stroke-linejoin="round"/>
<path d="M3.16992 48.4856L13.738 51.4965L24.1812 54.8167L35.1507 58.0121L45.415 61.5818L55.4731 65.325L63.1658 70.1534L71.0864 75.0197L77.6073 80.6129L85.9348 85.5877L94.9024 91.3004L105.34 86.2116L114.959 81.7685L122.494 76.5441L131.484 72.0955L140.294 67.6904L149.05 63.3775L158.848 59.6179L168.098 55.7281L178.514 52.4133L189.255 49.2885" stroke="white" stroke-width="1.08501" stroke-linecap="round" stroke-linejoin="round"/>
<path d="M76.658 177.64L66.6054 173.219L57.4967 168.467L48.7677 163.655L42.0244 158.04L41.2432 146.897L41.7314 135.059L42.5723 122.961L42.6808 111.091L43.6248 98.7545L45.3066 86.0165L45.9088 73.631L45.4151 61.5819L42.2685 55.8748" stroke="white" stroke-width="1.08501" stroke-linecap="round" stroke-linejoin="round"/>
<path d="M58.3648 179.224L57.4968 168.466L57.0356 157.079L58.8422 144.531L59.6777 132.341" stroke="white" stroke-width="1.08501" stroke-linecap="round" stroke-linejoin="round"/>
<path d="M94.9084 188.507L94.8866 177.749L94.8596 167.257L94.8433 156.032L94.8487 143.484L94.8541 131.017L94.865 118.203L94.8921 104.358L94.9029 91.3004L94.9247 77.7485" stroke="white" stroke-width="1.08501" stroke-linecap="round" stroke-linejoin="round"/>
<path d="M67.5058 183.841L66.6052 173.219L65.8404 161.946L66.9362 149.674L66.4913 138.021L59.6775 132.341L59.1024 120.677L51.2903 115.648L42.6807 111.091L33.6968 106.816L24.7183 102.65L13.2931 99.6115L3.46826 95.5698" stroke="white" stroke-width="1.08501" stroke-linecap="round" stroke-linejoin="round"/>
<path d="M86.2334 1.76465L96.5898 4.02686L105.633 4.35785" stroke="white" stroke-width="1.08501" stroke-linecap="round" stroke-linejoin="round"/>
<path d="M11.5894 31.4506L21.3924 27.6313L30.9135 34.071L39.7563 38.9644L48.7511 45.8053L57.8272 51.0298L67.5706 45.9138L76.7607 50.7747L86.0756 54.6211L95.5206 59.3626L105.101 63.502L114.828 66.784L123.069 66.3339L127.17 64.69L132.134 62.6937L137.516 60.4965L141.183 59.0046" stroke="white" stroke-width="1.08501" stroke-linecap="round" stroke-linejoin="round"/>
<path d="M132.943 157.15L123.449 161.685L120.477 171.825L120.742 180.293" stroke="white" stroke-width="1.08501" stroke-linecap="round" stroke-linejoin="round"/>
<path d="M86.6129 192.505L77.412 187.432L67.5058 183.841L58.3646 179.224L50.0968 173.409L48.7676 163.654L49.0986 151.942L49.5705 140.061L50.9539 127.664L51.2902 115.648L53.3409 102.78L55.2994 89.8679L55.9558 77.4174L55.473 65.3249L52.0552 60.4695" stroke="white" stroke-width="1.08501" stroke-linecap="round" stroke-linejoin="round"/>
<path d="M14.4267 145.35L4.96533 140.913" stroke="white" stroke-width="1.08501" stroke-linecap="round" stroke-linejoin="round"/>
<path d="M3.91846 60.4263L13.7758 63.6271L23.9749 67.0774L36.1325 69.828L45.9085 73.6309L55.9557 77.4176L64.8257 81.8066L72.0411 87.0254L76.1641 93.7254L84.6218 98.7165L94.8915 104.358L106.176 99.1614L114.763 94.2028L123.899 89.624L132.422 84.9043L140.63 80.179L149.11 75.6979L158.273 71.6237L168.634 68.157L179.669 65.0593L190.221 61.2509" stroke="white" stroke-width="1.08501" stroke-linecap="round" stroke-linejoin="round"/>
<path d="M21.3931 27.6315L30.4313 22.7435L39.1928 17.6603L47.9868 12.9079L59.7158 16.7488L69.112 12.7886L77.9875 17.3673L86.9822 25.06L96.0746 32.9535L105.259 41.8452L114.558 47.4982L123.987 51.8491L133.584 53.6555L142.844 48.6862L152.604 50.4765L159.868 50.9865" stroke="white" stroke-width="1.08501" stroke-linecap="round" stroke-linejoin="round"/>
<path d="M123.069 66.3342L122.494 76.5441L123.899 89.624L124.16 102.085L125.364 114.867L126.4 127.469L126.183 139.377L124.773 150.575L123.449 161.685L113.51 166.118L110.885 176.441L110.999 184.378L102.063 190.161L94.9565 195.901" stroke="white" stroke-width="1.08501" stroke-linecap="round" stroke-linejoin="round"/>
<path d="M42.0243 158.039L32.9047 153.667L22.9334 149.788L14.4269 145.35L13.1412 134.516L13.0381 123.048" stroke="white" stroke-width="1.08501" stroke-linecap="round" stroke-linejoin="round"/>
<path d="M50.0969 173.409L42.2848 167.099L33.4093 162.851L23.1505 161.175L14.0907 157.73L5.03076 152.945" stroke="white" stroke-width="1.08501" stroke-linecap="round" stroke-linejoin="round"/>
<path d="M66.8931 6.46281L76.6365 4.11914L87.5518 6.70148L96.4218 10.8137L105.395 18.8754L114.411 16.3256L121.209 15.0725" stroke="white" stroke-width="1.08501" stroke-linecap="round" stroke-linejoin="round"/>
<path d="M179.024 42.4094L178.514 52.4132L179.669 65.0591L178.547 76.658L178.476 88.5768L177.635 100.056L170.767 105.064L163.139 109.865L154.362 114.275L145.372 118.708L135.45 122.825L126.401 127.469L116.527 131.853L108.221 137.12L94.8485 143.484L80.6349 137.511L73.0668 131.923L72.5678 119.983L66.8389 113.793L69.0903 100.599L72.0415 87.0252L71.0867 75.0196L70.7666 68.8186" stroke="white" stroke-width="1.08501" stroke-linecap="round" stroke-linejoin="round"/>
<path d="M57.334 9.37085L66.893 6.46295L78.3887 9.24608L87.5517 6.70162L96.5898 4.0271L105.454 8.92052L114.411 16.3257L123.466 22.9498" stroke="white" stroke-width="1.08501" stroke-linecap="round" stroke-linejoin="round"/>
<path d="M47.9868 12.9079L57.3342 9.37076L69.112 12.7886L78.3889 9.246L87.2643 14.2805L96.4219 10.8138L105.455 8.92044L114.422 7.91675L121.209 15.0725L129.276 20.3457L137.75 25.1902L146.484 29.8667L157.329 31.2121" stroke="white" stroke-width="1.08501" stroke-linecap="round" stroke-linejoin="round"/>
<path d="M59.6779 132.341L50.9544 127.665L42.5727 122.961L33.1818 118.822L22.9068 115.171L12.2302 111.78L2.73633 107.06" stroke="white" stroke-width="1.08501" stroke-linecap="round" stroke-linejoin="round"/>
<path d="M76.6362 4.11917L86.2332 1.76478L96.7469 0.999756L105.633 4.35798L114.422 7.91672" stroke="white" stroke-width="1.08501" stroke-linecap="round" stroke-linejoin="round"/>
<path d="M132.135 62.6939L131.484 72.0954L132.422 84.9041L134.153 97.9676L134.538 110.331L135.45 122.825L135.167 134.657L133.193 145.556L124.773 150.575L115.252 155.197L106.257 160.204L105.308 171.564L94.8863 177.749L83.0433 172.28L74.8027 166.866L65.8405 161.946L57.0356 157.079L49.0987 151.942L41.2431 146.896L32.2756 142.48L22.3639 138.601L13.1413 134.516L5.25867 129.742L2.76315 118.447L2.736 107.06L3.46837 95.5697L3.80479 83.9655L2.76858 72.2473L3.91869 60.4261L3.17003 48.4855L1 35.6118" stroke="white" stroke-width="1.08501" stroke-linecap="round" stroke-linejoin="round"/>
<path d="M33.4096 162.852L32.905 153.667L32.2757 142.48L31.9014 131.072L33.1817 118.822L33.6971 106.816L35.444 94.1919L36.2849 81.8607L36.1329 69.828L35.151 58.0121L32.3951 51.1658" stroke="white" stroke-width="1.08501" stroke-linecap="round" stroke-linejoin="round"/>
<path d="M94.9568 195.901L86.6131 192.505L84.7469 183.158L83.0434 172.28L81.5027 161.175L80.6238 149.62L80.6347 137.511L80.4502 125.375L82.3707 112.165L84.6221 98.7164L85.9349 85.5877L86.7107 74.667" stroke="white" stroke-width="1.08501" stroke-linecap="round" stroke-linejoin="round"/>
<path d="M169.231 46.8904L168.098 55.7278L168.635 68.1566L169.595 80.6615L169.92 92.8028L170.767 105.063L170.528 116.749L163.584 121.914L154.839 126.384L145.92 130.892L135.167 134.657L126.183 139.377L116.798 144.026L107.537 148.876L94.8428 156.032L80.6237 149.62L73.4029 143.809L73.0665 131.923L65.8946 126.313L59.1024 120.677L60.2742 108.129L53.341 102.779L43.6247 98.7541L35.4437 94.1915L25.4833 90.4863L14.3401 87.356L3.80469 83.9654" stroke="white" stroke-width="1.08501" stroke-linecap="round" stroke-linejoin="round"/>
<path d="M86.7109 74.667L94.9245 77.7486L104.793 73.5603" stroke="white" stroke-width="1.08501" stroke-linecap="round" stroke-linejoin="round"/>
<path d="M78.5244 71.5963L86.7108 74.6668L95.1306 71.5637L105.058 68.5149L114.422 69.5728" stroke="white" stroke-width="1.08501" stroke-linecap="round" stroke-linejoin="round"/>
<path d="M141.184 59.0046L140.294 67.6902L140.63 80.1787L141.531 92.8083L143.37 105.763L145.372 118.708L145.92 130.892L144.108 141.856L141.807 152.435L139.529 162.884L129.422 167.001L120.476 171.824L110.885 176.441L102.975 182.067L94.9077 188.507L94.9565 195.901" stroke="white" stroke-width="1.08501" stroke-linecap="round" stroke-linejoin="round"/>
<path d="M159.868 50.9866L158.848 59.6178L158.273 71.6236L158.924 84.0415L161.36 97.1377L163.14 109.865L163.584 121.914L161.946 132.894L160.389 143.777L151.438 148.215L149.165 158.647L149.908 169.595" stroke="white" stroke-width="1.08501" stroke-linecap="round" stroke-linejoin="round"/>
<path d="M185.442 119.332L177.912 123.541L170.62 128.478L161.946 132.894L153.879 137.712L144.108 141.856L133.193 145.556" stroke="white" stroke-width="1.08501" stroke-linecap="round" stroke-linejoin="round"/>
<path d="M150.607 54.9521L149.05 63.3773L149.11 75.6976L150.325 88.4085L151.67 101.082L154.361 114.275L154.839 126.384L153.878 137.712L151.437 148.215L141.807 152.435L132.943 157.15L129.422 167.001L129.357 174.526L120.742 180.293L110.999 184.378" stroke="white" stroke-width="1.08501" stroke-linecap="round" stroke-linejoin="round"/>
<path d="M185.924 84.801L178.476 88.5769L169.92 92.803L161.359 97.1376L151.67 101.082L143.37 105.763L134.538 110.331L125.364 114.867L115.539 119.223L107.168 124.399L94.8536 131.017L80.45 125.375L72.5674 119.983" stroke="white" stroke-width="1.08501" stroke-linecap="round" stroke-linejoin="round"/>
<path d="M184.997 141.819L178.525 146.783L169.731 151.106L160.356 155.267L149.164 158.647L139.529 162.884" stroke="white" stroke-width="1.08501" stroke-linecap="round" stroke-linejoin="round"/>
<path d="M22.2012 46.1692L29.9156 44.6773L39.7567 38.9648L49.4676 32.2431L59.0808 26.5196L68.591 22.0115L77.9872 17.3676L87.2641 14.2808L96.2534 20.3514L105.335 28.7005L114.498 38.0316L123.786 43.9504L133.225 47.2381L142.844 48.6865L151.963 44.6612L160.996 39.4911L168.06 33.0188L179.078 34.6031" stroke="white" stroke-width="1.08501" stroke-linecap="round" stroke-linejoin="round"/>
<path d="M32.395 51.1658L38.8834 50.6992L48.7516 45.8057L58.4896 40.5163L68.092 34.1798L77.6021 30.4256L86.9821 25.0603L96.2535 20.3513L105.395 18.8757L114.466 25.6191L123.466 22.95L132.629 29.1725L141.916 34.63L151.356 38.2161L160.996 39.491L170.789 40.576L179.024 42.4096" stroke="white" stroke-width="1.08501" stroke-linecap="round" stroke-linejoin="round"/>
<path d="M123.466 22.9498L129.276 20.3457" stroke="white" stroke-width="1.08501" stroke-linecap="round" stroke-linejoin="round"/>
<path d="M42.2686 55.8743L47.954 56.0641L57.8277 51.0298L67.0232 56.7749L76.3109 59.4657L85.7505 63.4803L95.3312 65.4224L105.102 63.502L114.731 60.3174L124.22 57.4313L133.583 53.6554L143.359 54.2956L150.607 54.9521" stroke="white" stroke-width="1.08501" stroke-linecap="round" stroke-linejoin="round"/>
<path d="M52.0557 60.4695L57.1444 61.6413L60.7846 63.0519L66.4267 65.2382L75.8446 67.7934L85.7508 63.4805L95.5213 59.3628L105.151 56.9052L114.628 55.652L123.987 51.8492L133.226 47.2378L142.356 42.5179L151.356 38.2159L157.329 31.2122L168.06 33.0186" stroke="white" stroke-width="1.08501" stroke-linecap="round" stroke-linejoin="round"/>
<path d="M70.7661 68.8188L75.844 67.7935L85.4084 70.6146L95.1301 71.5639L104.792 73.5603L114.422 69.573L118.534 68.0322L123.069 66.3342" stroke="white" stroke-width="1.08501" stroke-linecap="round" stroke-linejoin="round"/>
<path d="M61.2939 64.5706L66.426 65.2379L76.3105 59.4655L86.0756 54.621L95.7106 52.2828L105.199 50.6174L114.557 47.4979L123.785 43.9499L132.899 39.8865L141.916 34.6296L146.484 29.8665" stroke="white" stroke-width="1.08501" stroke-linecap="round" stroke-linejoin="round"/>
</svg>
