<svg width="168" height="174" viewBox="0 0 168 174" fill="none" xmlns="http://www.w3.org/2000/svg">
<path d="M-24.6582 2.47021L-7.27632 3.22431L11.5107 5.92055L29.9017 10.6187L47.4409 17.0365L64.3835 24.9029L80.7075 34.5812L95.8977 45.9576L109.65 58.6034L122.291 72.356L133.667 87.5462L143.351 103.87L151.217 120.813L157.635 138.352L162.333 156.743L165.029 175.53L165.783 192.939" stroke="white" stroke-width="1.08501" stroke-linecap="round" stroke-linejoin="round"/>
<path d="M-25.8735 8.54639L-8.69238 9.28962L9.54128 11.9099L27.3898 16.467L44.4788 22.7167L60.9764 30.3823L76.823 39.7785L91.5684 50.8185L104.963 63.128L117.272 76.5225L128.312 91.2679L137.709 107.115L145.374 123.612L151.624 140.701L156.181 158.55L158.801 176.783L159.545 193.992" stroke="white" stroke-width="1.08501" stroke-linecap="round" stroke-linejoin="round"/>
<path d="M-26.9419 18.3442L-10.1784 19.0712L7.10043 21.5559L24.0104 25.8742L40.2965 31.8147L56.0075 39.1277L71.0241 48.0302L84.9937 58.4952L97.7642 70.2188L109.482 82.9839L119.947 96.959L128.855 111.97L136.163 127.687L142.109 143.967L146.427 160.883L148.906 178.161L149.639 194.952" stroke="white" stroke-width="1.08501" stroke-linecap="round" stroke-linejoin="round"/>
<path d="M-27.6904 30.3389L-11.4965 31.0441L4.56709 33.3498L20.2944 37.3698L35.5497 42.925L50.2625 49.7823L64.2212 58.061L77.2142 67.7936L89.1819 78.7631L100.151 90.7307L109.879 103.718L118.157 117.683L125.014 132.395L130.575 147.651L134.59 163.372L136.895 179.442L137.601 195.657" stroke="white" stroke-width="1.08501" stroke-linecap="round" stroke-linejoin="round"/>
<path d="M-28 42.5886L-12.4355 43.2613L2.35868 45.3879L16.8382 49.0878L31.0085 54.2362L44.6688 60.6161L57.5208 68.2383L69.4831 77.1951L80.6045 87.378L90.7819 98.494L99.7441 110.456L107.366 123.314L113.746 136.974L118.895 151.144L122.595 165.624L124.716 180.418L125.394 196.004" stroke="white" stroke-width="1.08501" stroke-linecap="round" stroke-linejoin="round"/>
<path d="M-27.8101 53.0972L-12.8369 53.7482L0.828916 55.7066L14.2071 59.1244L27.4118 63.9148L40.1335 69.8661L52.009 76.9078L63.0653 85.1864L73.4272 94.6587L82.9048 105.026L91.1834 116.077L98.2252 127.958L104.177 140.68L108.967 153.879L112.385 167.262L114.343 180.928L114.994 195.923" stroke="white" stroke-width="1.08501" stroke-linecap="round" stroke-linejoin="round"/>
<path d="M-27.1699 60.22L-12.6471 60.8493L0.21583 62.6938L12.8128 65.9163L25.3231 70.4408L37.3667 76.0829L48.5478 82.7123L58.9531 90.5082L68.7779 99.4758L77.7455 109.301L85.5359 119.706L92.1654 130.887L97.8129 142.931L102.337 155.441L105.554 168.032L107.404 180.901L108.034 195.445" stroke="white" stroke-width="1.08501" stroke-linecap="round" stroke-linejoin="round"/>
<path d="M-26.1826 62.9001L-11.9092 63.5186L0.595529 65.3143L12.3191 68.3089L12.84 68.4446L25.0301 72.8551L36.7699 78.3562L47.6364 84.8012L57.7541 92.3745L67.3239 101.114L76.0637 110.69L83.6426 120.802L90.0876 131.674L95.5885 143.408L99.9991 155.598L103.124 167.843L104.92 180.353L105.544 194.643" stroke="white" stroke-width="1.08501" stroke-linecap="round" stroke-linejoin="round"/>
<path d="M-26.1826 62.9001L-27.1699 60.2201L-27.8101 53.097L-28 42.5886L-27.6908 30.3388L-26.9421 18.344L-25.8733 8.54629L-24.6581 2.47021L-23.4864 1L-6.1478 1.75409L12.7043 4.4612L31.155 9.17559L48.743 15.6097L65.729 23.4924L82.1127 33.2087L97.3571 44.6285L111.137 57.3014L123.815 71.0865L135.23 86.331L144.946 102.715L152.828 119.701L159.268 137.283L163.982 155.739L166.69 174.591L167.444 191.957" stroke="white" stroke-width="1.08501" stroke-linecap="round" stroke-linejoin="round"/>
<path d="M0.595549 65.3142L0.21582 62.6939L0.828856 55.7064L2.3587 45.3879L4.56674 33.3497L7.1002 21.5556L9.54149 11.9098L11.5108 5.92053L12.7043 4.46118" stroke="white" stroke-width="1.08501" stroke-linecap="round" stroke-linejoin="round"/>
<path d="M12.8401 68.4444L12.813 65.9164L14.2072 59.1242L16.8384 49.0878L20.2942 37.3697L24.0103 25.8739L27.3902 16.4668L29.902 10.6186L31.1552 9.17554" stroke="white" stroke-width="1.08501" stroke-linecap="round" stroke-linejoin="round"/>
<path d="M25.0303 72.8552L25.3232 70.4411L27.4119 63.9147L31.0087 54.2364L35.5495 42.9251L40.2964 31.8146L44.4791 22.7167L47.4412 17.0367L48.7432 15.6099" stroke="white" stroke-width="1.08501" stroke-linecap="round" stroke-linejoin="round"/>
<path d="M36.77 78.3562L37.3668 76.0831L40.1335 69.8659L44.6689 60.6162L50.2622 49.7823L56.0073 39.1275L60.9767 30.3823L64.3836 24.9029L65.7291 23.4924" stroke="white" stroke-width="1.08501" stroke-linecap="round" stroke-linejoin="round"/>
<path d="M47.6362 84.8012L48.5476 82.7125L52.0088 76.9077L57.5207 68.2384L64.2206 58.061L71.0237 48.03L76.8231 39.7785L80.7074 34.5813L82.1125 33.2087" stroke="white" stroke-width="1.08501" stroke-linecap="round" stroke-linejoin="round"/>
<path d="M57.7544 92.3744L58.9534 90.5083L63.0656 85.1862L69.4834 77.1951L77.2141 67.7934L84.9937 58.4949L91.5689 50.8184L95.8981 45.9575L97.3574 44.6284" stroke="white" stroke-width="1.08501" stroke-linecap="round" stroke-linejoin="round"/>
<path d="M67.3242 101.115L68.7782 99.4763L73.4274 94.6588L80.6048 87.3784L89.1819 78.7633L97.7643 70.2189L104.963 63.1283L109.651 58.6038L111.137 57.3018" stroke="white" stroke-width="1.08501" stroke-linecap="round" stroke-linejoin="round"/>
<path d="M123.815 71.0867L122.291 72.3562L117.273 76.5226L109.482 82.9838L100.151 90.7308L90.7822 98.4941L82.905 105.026L77.7458 109.301L76.064 110.69" stroke="white" stroke-width="1.08501" stroke-linecap="round" stroke-linejoin="round"/>
<path d="M135.23 86.3311L133.667 87.5463L128.313 91.2679L119.947 96.9588L109.878 103.718L99.7442 110.456L91.1834 116.077L85.5359 119.706L83.6426 120.802" stroke="white" stroke-width="1.08501" stroke-linecap="round" stroke-linejoin="round"/>
<path d="M144.946 102.715L143.351 103.87L137.709 107.115L128.855 111.97L118.157 117.683L107.366 123.314L98.225 127.958L92.1652 130.887L90.0874 131.674" stroke="white" stroke-width="1.08501" stroke-linecap="round" stroke-linejoin="round"/>
<path d="M152.828 119.7L151.217 120.813L145.374 123.612L136.163 127.686L125.014 132.395L113.746 136.974L104.176 140.679L97.8127 142.931L95.5884 143.408" stroke="white" stroke-width="1.08501" stroke-linecap="round" stroke-linejoin="round"/>
<path d="M159.268 137.283L157.635 138.352L151.624 140.701L142.108 143.967L130.575 147.651L118.895 151.144L108.967 153.878L102.337 155.441L99.999 155.598" stroke="white" stroke-width="1.08501" stroke-linecap="round" stroke-linejoin="round"/>
<path d="M163.983 155.739L162.333 156.743L156.181 158.549L146.427 160.882L134.589 163.372L122.595 165.624L112.385 167.262L105.554 168.032L103.124 167.843" stroke="white" stroke-width="1.08501" stroke-linecap="round" stroke-linejoin="round"/>
<path d="M166.689 174.591L165.029 175.53L158.801 176.783L148.906 178.161L136.895 179.441L124.716 180.418L114.343 180.928L107.404 180.901L104.919 180.353" stroke="white" stroke-width="1.08501" stroke-linecap="round" stroke-linejoin="round"/>
</svg>
