<svg width="225" height="584" viewBox="0 0 225 584" fill="none" xmlns="http://www.w3.org/2000/svg">
<g opacity="0.2">
<path d="M3.95117 23.2052L15.9974 48.2505L27.9323 73.0669L39.762 97.6544L51.4803 122.025L49.0673 126.189" stroke="white" stroke-width="1.08501" stroke-linecap="round" stroke-linejoin="round"/>
<path d="M21.8325 16.3378L32.2701 42.008L42.5654 67.3194L52.7184 92.2904L62.7353 116.915L65.3029 123.244" stroke="white" stroke-width="1.08501" stroke-linecap="round" stroke-linejoin="round"/>
<path d="M53.2251 8.85755L60.4516 35.1093L67.5543 60.9033L74.5396 86.2518L81.401 111.167L83.8016 119.891" stroke="white" stroke-width="1.08501" stroke-linecap="round" stroke-linejoin="round"/>
<path d="M94.1401 1.00018L96.949 27.6974L99.1764 48.8882L99.7023 53.8812L101.645 72.3373L102.406 79.5576L104.132 95.9781L105.054 104.745L106.217 115.814" stroke="white" stroke-width="1.08501" stroke-linecap="round" stroke-linejoin="round"/>
<path d="M48.6714 126.257L36.9531 102.437L25.0182 78.1838L13.0338 53.8253L0.999996 29.3616L3.95125 23.2054L21.8319 16.3378L53.2252 8.85758L94.1403 0.999973" stroke="white" stroke-width="1.08501" stroke-linecap="round" stroke-linejoin="round"/>
<path d="M201.846 65.8595L194.341 89.8653L192.15 96.8629" stroke="white" stroke-width="1.08501" stroke-linecap="round" stroke-linejoin="round"/>
<path d="M119.186 113.457L119.532 138.347L119.872 162.823L120.213 186.891L120.54 210.563L120.763 226.346" stroke="white" stroke-width="1.08501" stroke-linecap="round" stroke-linejoin="round"/>
<path d="M207.457 217.059L199.922 240.471L187.578 250.6L181.323 273.702L161.89 283.199L136.69 291.638L109.231 298.568L83.5426 303.784L63.1933 307.335L50.85 309.556L47.8369 310.936" stroke="white" stroke-width="1.08501" stroke-linecap="round" stroke-linejoin="round"/>
<path d="M199.921 240.471L192.44 263.716L185.808 269.674L181.322 273.702L175.141 296.569L157.886 305.844L153.932 328.198L149.038 330.202" stroke="white" stroke-width="1.08501" stroke-linecap="round" stroke-linejoin="round"/>
<path d="M206.652 174.424L199.883 197.811L197.94 204.543" stroke="white" stroke-width="1.08501" stroke-linecap="round" stroke-linejoin="round"/>
<path d="M174.411 59.7958L169.493 83.4985L165.298 103.73" stroke="white" stroke-width="1.08501" stroke-linecap="round" stroke-linejoin="round"/>
<path d="M174.207 213.514L170.049 237.037L165.941 260.27L161.888 283.199L157.885 305.844L135.501 314.079L111.068 320.86L88.126 326.001L69.8309 329.547L58.6199 331.817L55.7305 333.29" stroke="white" stroke-width="1.08501" stroke-linecap="round" stroke-linejoin="round"/>
<path d="M140.253 54.3761L138.495 77.8561L136.72 101.509L136.083 110.017" stroke="white" stroke-width="1.08501" stroke-linecap="round" stroke-linejoin="round"/>
<path d="M103.094 49.4019L104.764 72.7828L106.453 96.3432L107.827 115.523" stroke="white" stroke-width="1.08501" stroke-linecap="round" stroke-linejoin="round"/>
<path d="M140.34 222.405L139.102 245.811L137.89 268.888L136.689 291.638L135.501 314.079L134.462 333.834" stroke="white" stroke-width="1.08501" stroke-linecap="round" stroke-linejoin="round"/>
<path d="M213.88 294.342L207.76 316.869L200.503 328.563L182.629 339.91L156.259 350.063L125.064 358.316L93.5594 364.225L66.3796 367.752L47.2243 369.206L38.3892 369.255" stroke="white" stroke-width="1.08501" stroke-linecap="round" stroke-linejoin="round"/>
<path d="M209.703 283.063L203.918 305.615L203.374 307.731" stroke="white" stroke-width="1.08501" stroke-linecap="round" stroke-linejoin="round"/>
<path d="M207.76 316.869L201.672 339.279L195.614 361.571L189.452 372.936L184.54 392.667L183.995 394.869L170.272 405.567L150.059 415.12L126.09 422.897L101.726 428.527L80.4791 431.992L65.2156 433.563L57.8716 433.842" stroke="white" stroke-width="1.08501" stroke-linecap="round" stroke-linejoin="round"/>
<path d="M194.644 272.891L189.954 295.425L185.258 317.964L185.221 318.156" stroke="white" stroke-width="1.08501" stroke-linecap="round" stroke-linejoin="round"/>
<path d="M158.374 327.87L156.258 350.063L154.167 372.002L152.101 393.682L150.059 415.12L148.042 436.311L147.801 438.848" stroke="white" stroke-width="1.08501" stroke-linecap="round" stroke-linejoin="round"/>
<path d="M202.513 379.154L198.3 400.834L205.242 410.251" stroke="white" stroke-width="1.08501" stroke-linecap="round" stroke-linejoin="round"/>
<path d="M124.717 336.266L125.063 358.317L125.41 380.107L125.75 401.632L126.09 422.897L126.424 443.915L126.752 464.685L127.08 485.207" stroke="white" stroke-width="1.08501" stroke-linecap="round" stroke-linejoin="round"/>
<path d="M210.667 404.719L205.922 426.213L201.201 447.577L189.786 460.446L185.876 481.445L181.99 502.283L178.142 522.954L174.324 543.458L159.55 554.125L140.147 562.997" stroke="white" stroke-width="1.08501" stroke-linecap="round" stroke-linejoin="round"/>
<path d="M201.202 447.577L196.506 468.811L191.841 489.928L187.207 510.915L182.598 531.777L174.326 543.459L170.533 563.808L157.144 574.128" stroke="white" stroke-width="1.08501" stroke-linecap="round" stroke-linejoin="round"/>
<path d="M197.706 417.935L193.728 439.274L171.955 451.228L143.408 461.09" stroke="white" stroke-width="1.08501" stroke-linecap="round" stroke-linejoin="round"/>
<path d="M82.7932 496.437L76.9773 475.636L71.1182 454.681L65.2157 433.564L59.2638 412.274L53.2684 390.824L47.2236 369.206L41.1294 347.409" stroke="white" stroke-width="1.08501" stroke-linecap="round" stroke-linejoin="round"/>
<path d="M182.597 531.778L178.012 552.517L170.532 563.808" stroke="white" stroke-width="1.08501" stroke-linecap="round" stroke-linejoin="round"/>
<path d="M94.1594 494.345L89.6429 473.767L85.083 452.979L80.4798 431.992L75.8271 410.789L71.1249 389.375L66.3795 367.751L61.5845 345.905" stroke="white" stroke-width="1.08501" stroke-linecap="round" stroke-linejoin="round"/>
<path d="M109.62 490.677L107.015 470.191L104.385 449.477L101.725 428.528L99.0335 407.343L96.3112 385.905L93.558 364.225L90.7676 342.292" stroke="white" stroke-width="1.08501" stroke-linecap="round" stroke-linejoin="round"/>
<path d="M198.3 400.834L194.674 419.519" stroke="white" stroke-width="1.08501" stroke-linecap="round" stroke-linejoin="round"/>
<path d="M189.168 167.698L206.653 174.424L217.054 183.568" stroke="white" stroke-width="1.08501" stroke-linecap="round" stroke-linejoin="round"/>
<path d="M143.501 458.238L126.752 464.685L107.016 470.191L89.6423 473.768L76.9773 475.636L70.6851 476.335" stroke="white" stroke-width="1.08501" stroke-linecap="round" stroke-linejoin="round"/>
<path d="M205.923 426.214L193.729 439.275L189.787 460.447L169.426 472.202L142.747 481.898" stroke="white" stroke-width="1.08501" stroke-linecap="round" stroke-linejoin="round"/>
<path d="M112.522 338.431L111.068 320.86L109.23 298.568L107.368 275.966L105.475 253.049L103.557 229.804" stroke="white" stroke-width="1.08501" stroke-linecap="round" stroke-linejoin="round"/>
<path d="M219.194 72.6774L212.995 89.036" stroke="white" stroke-width="1.08501" stroke-linecap="round" stroke-linejoin="round"/>
<path d="M142.852 478.494L128.968 484.403L128.739 484.502L128.702 484.521L127.081 485.207L110.531 490.392L109.621 490.677L95.0692 494.129L94.1596 494.346L83.6726 496.276L82.794 496.437L77.4174 497.346L77.04 497.408" stroke="white" stroke-width="1.08501" stroke-linecap="round" stroke-linejoin="round"/>
<path d="M91.4622 342.168L88.1273 326.001L83.5428 303.783L78.9025 281.293L74.2002 258.512L69.4424 235.435" stroke="white" stroke-width="1.08501" stroke-linecap="round" stroke-linejoin="round"/>
<path d="M196.506 468.811L185.877 481.445L166.926 492.972L142.084 502.488" stroke="white" stroke-width="1.08501" stroke-linecap="round" stroke-linejoin="round"/>
<path d="M191.841 489.928L181.991 502.284L164.445 513.551L141.435 522.862" stroke="white" stroke-width="1.08501" stroke-linecap="round" stroke-linejoin="round"/>
<path d="M212.147 391.479L208.769 406.656" stroke="white" stroke-width="1.08501" stroke-linecap="round" stroke-linejoin="round"/>
<path d="M74.2546 344.333L69.8308 329.546L63.1921 307.335L56.4791 284.894L49.698 262.225L42.8428 239.314" stroke="white" stroke-width="1.08501" stroke-linecap="round" stroke-linejoin="round"/>
<path d="M187.207 510.915L178.143 522.955L161.988 533.937L140.792 543.032" stroke="white" stroke-width="1.08501" stroke-linecap="round" stroke-linejoin="round"/>
<path d="M63.4532 345.67L58.6211 331.817L50.8501 309.556L43.0296 287.122L35.1473 264.532L27.2031 241.77" stroke="white" stroke-width="1.08501" stroke-linecap="round" stroke-linejoin="round"/>
<path d="M142.517 488.926L128.968 484.576L128.702 484.52" stroke="white" stroke-width="1.08501" stroke-linecap="round" stroke-linejoin="round"/>
<path d="M98.5768 230.628L96.238 216.892L92.2412 193.394L88.1763 169.518L84.0557 145.258L79.8608 120.609" stroke="white" stroke-width="1.08501" stroke-linecap="round" stroke-linejoin="round"/>
<path d="M60.2164 346.004L55.7308 333.29L47.836 310.936L39.9166 288.483L31.9538 265.943L23.9663 243.305" stroke="white" stroke-width="1.08501" stroke-linecap="round" stroke-linejoin="round"/>
<path d="M198.3 400.834L186.798 394.01" stroke="white" stroke-width="1.08501" stroke-linecap="round" stroke-linejoin="round"/>
<path d="M201.672 339.279L194.959 350.836L189.452 372.937L174.349 383.9L152.101 393.682L125.75 401.632L99.0341 407.343L75.8263 410.789L59.2636 412.274L51.4121 412.429" stroke="white" stroke-width="1.08501" stroke-linecap="round" stroke-linejoin="round"/>
<path d="M141.812 511.001L129.203 506.596L111.669 502.345L96.0528 499.753L84.1984 498.429L77.5658 497.853L77.0399 497.408L70.6858 476.335L64.2945 455.144L57.8724 433.842L51.413 412.428L44.9166 390.897L38.3892 369.255L31.8247 347.495" stroke="white" stroke-width="1.08501" stroke-linecap="round" stroke-linejoin="round"/>
<path d="M191.779 421.029L181.254 414.408" stroke="white" stroke-width="1.08501" stroke-linecap="round" stroke-linejoin="round"/>
<path d="M51.48 122.026L62.7343 116.915L81.4007 111.167L105.054 104.745" stroke="white" stroke-width="1.08501" stroke-linecap="round" stroke-linejoin="round"/>
<path d="M78.728 233.907L75.1643 222.077L68.1172 198.709L60.9773 175.018L53.7446 151.006L46.4067 126.672" stroke="white" stroke-width="1.08501" stroke-linecap="round" stroke-linejoin="round"/>
<path d="M111.668 502.346L110.53 490.392" stroke="white" stroke-width="1.08501" stroke-linecap="round" stroke-linejoin="round"/>
<path d="M192.379 373.475L202.513 379.155L212.147 391.479L210.668 404.72L208.769 406.656L205.242 410.251L197.706 417.935L194.674 419.519L191.779 421.029L177.419 428.527L177.27 428.608L175.34 429.616L174.504 430.049L171.955 451.228L169.425 472.202L166.925 492.972L164.444 513.55L161.988 533.937L159.55 554.125L157.144 574.128L139.517 582.759" stroke="white" stroke-width="1.08501" stroke-linecap="round" stroke-linejoin="round"/>
<path d="M217.053 183.569L213.452 194.575" stroke="white" stroke-width="1.08501" stroke-linecap="round" stroke-linejoin="round"/>
<path d="M161.326 216.898L170.52 210.458L179.163 186.545L185.078 178L189.168 167.699L194.699 153.778" stroke="white" stroke-width="1.08501" stroke-linecap="round" stroke-linejoin="round"/>
<path d="M64.0898 236.221L60.1981 226.198L51.1526 202.91L42.0144 179.386L32.7832 155.622L23.4531 131.616" stroke="white" stroke-width="1.08501" stroke-linecap="round" stroke-linejoin="round"/>
<path d="M13.5542 135.625L23.4535 131.615L46.4076 126.672L48.672 126.257L49.068 126.189L53.1329 125.453L65.3029 123.244L79.8611 120.609L83.8023 119.891L106.218 115.814L107.827 115.523L119.186 113.456L136.083 110.016L157.026 105.753L158.542 105.444L165.298 103.73L191.922 96.9491" stroke="white" stroke-width="1.08501" stroke-linecap="round" stroke-linejoin="round"/>
<path d="M23.5518 159.309L32.7829 155.621L53.7447 151.006L84.0552 145.258L119.532 138.347L154.99 130.477L185.078 121.988L191.921 96.9493L192.15 96.8627L201.752 93.2556L212.994 89.0361L214.627 88.4235" stroke="white" stroke-width="1.08501" stroke-linecap="round" stroke-linejoin="round"/>
<path d="M176.219 314.122L185.258 317.964L185.413 318.088" stroke="white" stroke-width="1.08501" stroke-linecap="round" stroke-linejoin="round"/>
<path d="M33.4888 182.851L42.0146 179.386L60.9779 175.018L88.1764 169.517L119.873 162.823L151.489 155.108L178.335 146.681L196.716 137.982L204.37 129.407L211.788 110.734L214.102 104.893" stroke="white" stroke-width="1.08501" stroke-linecap="round" stroke-linejoin="round"/>
<path d="M56.4802 237.328L53.17 229.495L43.3573 206.244L33.489 182.851L23.5525 159.309L13.5542 135.625" stroke="white" stroke-width="1.08501" stroke-linecap="round" stroke-linejoin="round"/>
<path d="M56.4429 237.334L53.1699 229.495" stroke="white" stroke-width="1.08501" stroke-linecap="round" stroke-linejoin="round"/>
<path d="M43.356 206.244L51.1517 202.909L68.1167 198.708L92.2401 193.394L120.212 186.891L148.048 179.349L171.676 171.04L187.892 162.384L196.715 137.982L205.625 113.327L214.627 88.4237L223.895 80.2381" stroke="white" stroke-width="1.08501" stroke-linecap="round" stroke-linejoin="round"/>
<path d="M53.1699 229.495L60.1984 226.198L75.165 222.077L96.2382 216.892L120.541 210.563L144.658 203.207L165.113 195.071L171.677 171.04L178.335 146.681L185.079 121.989L205.626 113.327L214.102 104.894L223.896 80.2383L219.194 72.6777L201.845 65.8595L174.412 59.7962L140.253 54.3763L103.094 49.4019L99.177 48.8884" stroke="white" stroke-width="1.08501" stroke-linecap="round" stroke-linejoin="round"/>
<path d="M183.098 292.733L189.953 295.425L203.918 305.615L204.431 307.106" stroke="white" stroke-width="1.08501" stroke-linecap="round" stroke-linejoin="round"/>
<path d="M13.0332 53.8252L15.9968 48.2506L32.2689 42.0079L60.451 35.1093L96.9486 27.6972" stroke="white" stroke-width="1.08501" stroke-linecap="round" stroke-linejoin="round"/>
<path d="M25.0186 78.1838L27.9327 73.0671L42.5651 67.3193L67.5547 60.9033L99.7029 53.8809" stroke="white" stroke-width="1.08501" stroke-linecap="round" stroke-linejoin="round"/>
<path d="M96.0516 499.753L95.0679 494.129" stroke="white" stroke-width="1.08501" stroke-linecap="round" stroke-linejoin="round"/>
<path d="M36.9531 102.437L39.7621 97.6546L52.7178 92.2904L74.5396 86.2518L102.406 79.5574" stroke="white" stroke-width="1.08501" stroke-linecap="round" stroke-linejoin="round"/>
<path d="M190.028 271.209L194.644 272.891L209.703 283.063L213.88 294.342L206.096 306.116L204.432 307.106L203.374 307.731L186.83 317.575L185.481 318.063L185.413 318.088L185.221 318.156L173.558 322.376L167.569 324.541L158.375 327.87L153.791 329.014L149.039 330.202L134.462 333.834L124.718 336.266L112.523 338.431L91.462 342.168L90.769 342.292L74.2558 344.334L63.4531 345.67L61.5846 345.905L60.2172 346.004L50.9614 346.685L47.5523 346.938L41.1301 347.409L34.4171 347.471L31.8247 347.495" stroke="white" stroke-width="1.08501" stroke-linecap="round" stroke-linejoin="round"/>
<path d="M171.684 211.738L175.644 212.901L175.724 212.938" stroke="white" stroke-width="1.08501" stroke-linecap="round" stroke-linejoin="round"/>
<path d="M51.48 122.026L53.132 125.453" stroke="white" stroke-width="1.08501" stroke-linecap="round" stroke-linejoin="round"/>
<path d="M23.9663 243.305L27.2021 241.77L42.8431 239.314L56.4423 237.334L56.4794 237.328L64.0895 236.22L69.4414 235.435L78.7282 233.906L98.5763 230.627L103.557 229.804L120.763 226.346L140.339 222.405L141.991 221.971L158.981 217.511L161.326 216.898L168.911 214.9L170.606 214.46L174.207 213.514L175.63 212.975L175.742 212.932L197.941 204.542L200.273 203.658L203.553 201.399L213.452 194.575L215.048 193.474L217.053 183.568" stroke="white" stroke-width="1.08501" stroke-linecap="round" stroke-linejoin="round"/>
<path d="M50.9614 346.685L47.4657 346.592L34.2625 346.938L31.8247 347.495" stroke="white" stroke-width="1.08501" stroke-linecap="round" stroke-linejoin="round"/>
<path d="M31.9536 265.944L35.1461 264.533L49.6981 262.225L74.1989 258.513L105.475 253.05L139.101 245.811L170.049 237.038L193.888 227.25L207.456 217.059L215.048 193.474" stroke="white" stroke-width="1.08501" stroke-linecap="round" stroke-linejoin="round"/>
<path d="M39.917 288.483L43.029 287.122L56.4798 284.894L78.9018 281.293L107.369 275.966L137.889 268.888L165.942 260.27L187.578 250.599L193.889 227.249L200.274 203.658" stroke="white" stroke-width="1.08501" stroke-linecap="round" stroke-linejoin="round"/>
<path d="M101.646 72.3373L104.764 72.7827L138.496 77.8561L169.493 83.4988L194.34 89.8652L201.752 93.2558" stroke="white" stroke-width="1.08501" stroke-linecap="round" stroke-linejoin="round"/>
<path d="M104.133 95.9781L106.453 96.3431L136.72 101.509L157.026 105.754" stroke="white" stroke-width="1.08501" stroke-linecap="round" stroke-linejoin="round"/>
<path d="M84.1978 498.429L83.6719 496.276" stroke="white" stroke-width="1.08501" stroke-linecap="round" stroke-linejoin="round"/>
<path d="M180.889 188.555L180.667 189.601L175.643 212.902L175.63 212.976" stroke="white" stroke-width="1.08501" stroke-linecap="round" stroke-linejoin="round"/>
<path d="M177.629 427.766L177.418 428.527" stroke="white" stroke-width="1.08501" stroke-linecap="round" stroke-linejoin="round"/>
<path d="M180.493 189.552L180.666 189.601L199.883 197.811L203.552 201.4" stroke="white" stroke-width="1.08501" stroke-linecap="round" stroke-linejoin="round"/>
<path d="M128.968 484.403L128.968 484.576L129.203 506.596" stroke="white" stroke-width="1.08501" stroke-linecap="round" stroke-linejoin="round"/>
<path d="M192.441 263.716L190.028 271.209L185.01 286.794L180.178 291.583L175.142 296.569L169.016 319.202L158.61 325.407L153.932 328.198L153.79 329.014" stroke="white" stroke-width="1.08501" stroke-linecap="round" stroke-linejoin="round"/>
<path d="M195.615 361.571L192.379 373.475L189.589 383.752L184.973 392.921L183.995 394.87L179.417 413.252L178.576 416.624L166.239 427.024L165.082 433.156" stroke="white" stroke-width="1.08501" stroke-linecap="round" stroke-linejoin="round"/>
<path d="M204.369 129.407L201.95 135.501L194.698 153.778L187.893 162.384L179.163 186.545L165.112 195.07L158.98 217.511" stroke="white" stroke-width="1.08501" stroke-linecap="round" stroke-linejoin="round"/>
<path d="M185.078 178L180.89 188.556L180.494 189.552L175.519 202.08L170.52 210.458L168.912 214.9" stroke="white" stroke-width="1.08501" stroke-linecap="round" stroke-linejoin="round"/>
<path d="M158.542 105.444L158.462 106.057L154.991 130.477L151.489 155.108L148.049 179.349L144.658 203.206L141.992 221.972" stroke="white" stroke-width="1.08501" stroke-linecap="round" stroke-linejoin="round"/>
<path d="M185.01 286.794L183.098 292.734L177.635 309.705L174.35 313.33L169.017 319.202L167.569 324.541" stroke="white" stroke-width="1.08501" stroke-linecap="round" stroke-linejoin="round"/>
<path d="M206.095 306.116L205.248 309.513L200.502 328.563L194.958 350.836L178.464 362.016L154.167 372.002L125.409 380.107L96.3116 385.905L71.124 389.376L53.2681 390.824L44.9155 390.898" stroke="white" stroke-width="1.08501" stroke-linecap="round" stroke-linejoin="round"/>
<path d="M189.589 383.752L187.257 392.321L186.799 394.01L183.594 405.815L179.981 413.604L178.576 416.624L175.34 429.617" stroke="white" stroke-width="1.08501" stroke-linecap="round" stroke-linejoin="round"/>
<path d="M183.594 405.814L181.274 414.353L181.255 414.408L177.629 427.766L177.271 428.608" stroke="white" stroke-width="1.08501" stroke-linecap="round" stroke-linejoin="round"/>
<path d="M186.828 317.575L186.642 318.558L182.627 339.91L178.463 362.016L174.349 383.9L170.272 405.567L166.238 427.024L148.041 436.311L144.156 437.678L126.424 443.915L104.385 449.477L85.0816 452.979L71.1173 454.68L64.293 455.144" stroke="white" stroke-width="1.08501" stroke-linecap="round" stroke-linejoin="round"/>
<path d="M144.083 440.073L143.501 458.238L143.408 461.09L142.851 478.494L142.746 481.897L142.517 488.926L142.084 502.488L141.812 511.001L141.435 522.862L140.791 543.032L140.148 562.997L139.517 582.759" stroke="white" stroke-width="1.08501" stroke-linecap="round" stroke-linejoin="round"/>
<path d="M175.519 202.081L171.683 211.739L170.606 214.461" stroke="white" stroke-width="1.08501" stroke-linecap="round" stroke-linejoin="round"/>
<path d="M177.635 309.705L176.218 314.122L173.558 322.376" stroke="white" stroke-width="1.08501" stroke-linecap="round" stroke-linejoin="round"/>
<path d="M174.503 430.049L165.08 433.155L147.8 438.847L144.082 440.073" stroke="white" stroke-width="1.08501" stroke-linecap="round" stroke-linejoin="round"/>
</g>
</svg>
