<svg width="1113" height="224" viewBox="0 0 1113 224" fill="none" xmlns="http://www.w3.org/2000/svg">
<g opacity="0.6">
<path d="M1112 196.402L1059.54 215.916L1035.22 222.617" stroke="white" stroke-width="1.08501" stroke-linecap="round" stroke-linejoin="round"/>
<path d="M1 182.538L8.86344 186.283L68.032 206.828L129.184 222.617" stroke="white" stroke-width="1.08501" stroke-linecap="round" stroke-linejoin="round"/>
<path d="M1 151.091L5.62755 154.194L50.4432 175.103L105.436 193.872L169.615 210.191L235.76 222.616" stroke="white" stroke-width="1.08501" stroke-linecap="round" stroke-linejoin="round"/>
<path d="M1112 29.4609L1101.58 19.4845L1072.66 1.12952" stroke="white" stroke-width="1.08501" stroke-linecap="round" stroke-linejoin="round"/>
<path d="M945.015 222.617L951.191 221.395L1020.64 202.559L1077.81 181.674L1112 164.597" stroke="white" stroke-width="1.08501" stroke-linecap="round" stroke-linejoin="round"/>
<path d="M53.9053 1.12952L46.5985 4.64006L19.2673 22.5199L1 40.4245" stroke="white" stroke-width="1.08501" stroke-linecap="round" stroke-linejoin="round"/>
<path d="M1 107.514L17.7363 125.011L49.4691 145.791L91.1532 164.849L141.988 181.915L201.053 196.722L267.302 209.012L339.518 218.532L387.674 222.616" stroke="white" stroke-width="1.08501" stroke-linecap="round" stroke-linejoin="round"/>
<path d="M576.505 1.12952L572.382 16.7328L568.224 33.7859L564.466 50.5059L561.109 66.7692L558.151 82.4774L555.594 97.544L553.419 111.895L551.592 125.468L550.131 138.221L549 150.104L548.478 157.113" stroke="white" stroke-width="1.08501" stroke-linecap="round" stroke-linejoin="round"/>
<path d="M1112 190.836L1077.81 181.674L1035.67 170.883L994.442 161.005L954.324 152.244L915.562 144.81L878.367 138.887L842.998 134.655L809.699 132.285L773.913 131.391L741.623 131.884L712.726 133.606L687.065 136.425L664.448 140.189L650.095 144.804L632.559 148.623L631.237 148.974L630.75 149.123L628.818 149.591" stroke="white" stroke-width="1.08501" stroke-linecap="round" stroke-linejoin="round"/>
<path d="M151.349 1.12952L124.348 14.5734L102.271 29.7138L87.0136 45.7491L79.1499 62.5122L79.3066 79.8245L88.1444 97.4822L106.377 115.263L133.743 132.347L169.095 147.944L211.77 161.857L260.97 173.876L315.807 183.821L375.34 191.503L438.493 196.759L504.133 199.443L571.096 199.431L638.163 196.63L704.082 190.985L767.547 182.476L824.767 171.642L874.176 158.976L915.564 144.81L948.759 129.478L973.724 113.295L990.46 96.5629L999.02 79.5467L999.472 62.4998L991.921 45.6564L976.455 29.2142L953.178 13.358L928.038 1.12952" stroke="white" stroke-width="1.08501" stroke-linecap="round" stroke-linejoin="round"/>
<path d="M540.773 1.12952L540.826 16.1713L540.895 33.2984L540.999 50.0739L541.104 66.3992L541.243 82.1627L541.382 97.2785L541.539 111.673L541.713 125.283L541.887 138.061L542.061 149.968L542.183 157.113" stroke="white" stroke-width="1.08501" stroke-linecap="round" stroke-linejoin="round"/>
<path d="M730.384 1.12952L710.464 14.2278L688.665 29.7632L668.728 45.2061L650.669 60.4206L634.49 75.3144L620.154 89.7824L607.611 103.745L596.842 117.127L587.743 129.867L580.262 141.917L574.312 153.238L573.025 156.28" stroke="white" stroke-width="1.08501" stroke-linecap="round" stroke-linejoin="round"/>
<path d="M636.718 113.357L621.043 125.221L607.839 136.66L596.965 147.624L600.828 150.011L603.524 152.492L604.22 153.652" stroke="white" stroke-width="1.08501" stroke-linecap="round" stroke-linejoin="round"/>
<path d="M592.18 145.458L584.838 155.514" stroke="white" stroke-width="1.08501" stroke-linecap="round" stroke-linejoin="round"/>
<path d="M498.219 155.823L490.39 145.859L479.917 134.562L467.269 122.717L452.342 110.383L435.066 97.6179L415.338 84.5011L393.086 71.1066L368.278 57.5332L340.894 43.8796L310.936 30.263L278.472 16.8006L248.949 5.96032L233.744 1.12952" stroke="white" stroke-width="1.08501" stroke-linecap="round" stroke-linejoin="round"/>
<path d="M418.174 222.617L427.638 210.074L438.494 196.759L448.862 185.333L458.709 175.98L467.965 168.885L477.899 162.986L486.841 159.025L521.462 160.401L556.726 160.395L592.095 158.958L626.995 156.051L660.832 151.652L691.661 146.013L718.644 139.375L741.626 131.885L760.52 123.704L775.185 114.973L785.589 105.855L791.661 96.4766L793.331 86.9751L790.564 77.4738L783.327 68.102L771.584 58.9708L755.457 50.2529L735.902 42.4359L713.512 35.5997L688.668 29.7632L661.772 24.9446L633.188 21.1503L603.282 18.4048L572.384 16.7328L540.825 16.1713L508.936 16.7573L477.011 18.522L445.4 21.5267L414.938 25.7343L387.241 30.9232L362.519 37.0003L340.894 43.8796L322.575 51.4683L307.752 59.6741L296.67 68.392L289.52 77.5292L286.58 86.9813L288.128 96.6308L294.408 106.361L305.699 116.041L321.722 125.24L341.747 133.55L365.39 140.893L392.182 147.179L421.688 152.35L453.403 156.317L486.841 159.025L494.844 156.798L523.114 157.921L524.384 157.97L526.994 157.119H529.378H535.815L542.182 157.113H548.48H552.516L554.708 157.026L560.885 156.773L567.008 156.527L573.028 156.28L578.108 156.076L578.734 156.021L578.908 156.008L582.718 155.694L584.84 155.515L590.86 155.015L596.671 154.534L598.863 154.349L603.404 153.972L604.291 153.75L607.179 153.374L610.415 153.065L612.12 152.738L614.433 152.331L616.225 152.066L616.608 152.017L616.887 151.887L617.095 151.85L621.149 151.116L623.811 150.628L624.402 150.517L624.594 150.486L626.855 150.073L627.777 149.906L628.212 149.789L628.682 149.536L628.856 149.468L636.111 146.507L642.791 142.669L647.68 138.628L650.724 134.445L651.873 130.176L651.09 125.875L648.323 121.6L643.522 117.398L636.719 113.357L654.969 101.135L675.881 88.6287L699.576 75.9128L726.09 63.0859L755.457 50.2529L787.677 37.5124L822.75 24.994L854.709 15.0114L888.042 6.16396L910.259 1.12952" stroke="white" stroke-width="1.08501" stroke-linecap="round" stroke-linejoin="round"/>
<path d="M335.935 1.12952L307.194 7.97166L278.471 16.8006L253.923 26.5735L233.864 37.1731L218.589 48.4884L208.447 60.396L203.819 72.76L205.089 85.445L212.674 98.2905L226.975 111.136L247.73 123.395L274 134.519L305.246 144.378L340.928 152.856L380.385 159.834L422.974 165.214L467.963 168.885L514.623 170.754L562.188 170.742L609.857 168.792L656.847 164.849L702.254 158.896L743.469 151.282L779.342 142.336L809.7 132.286L834.422 121.341L853.403 109.723L866.573 97.6241L873.897 85.2414L875.358 72.7477L870.974 60.3219L860.709 48.112L844.565 36.2599L822.748 24.994L796.583 14.9373L766.851 6.17632L744.669 1.12952" stroke="white" stroke-width="1.08501" stroke-linecap="round" stroke-linejoin="round"/>
<path d="M102.184 1.12952L85.7435 9.1687L61.1087 25.6666L43.8506 43.1824L34.6125 61.5311L34.1602 80.5216L43.2415 99.9501L62.6919 119.558L92.2675 138.443L130.768 155.725L177.48 171.173L231.568 184.55L292.024 195.63L357.769 204.2L427.637 210.074L500.306 213.072L574.471 213.054L648.723 209.926L721.653 203.62L791.73 194.131L854.778 182.063L909.057 167.971L954.326 152.245L990.46 135.266L1017.41 117.38L1035.24 98.9321L1044.04 80.2131L1043.92 61.5126L1035.05 43.0713L1017.55 25.1174L991.556 7.84829L977.499 1.12952" stroke="white" stroke-width="1.08501" stroke-linecap="round" stroke-linejoin="round"/>
<path d="M688.561 1.12952L679.515 8.7614L661.769 24.9446L645.52 40.9797L630.802 56.7558L617.597 72.1616L605.906 87.0863L595.677 101.455L586.873 115.195L579.462 128.245L573.373 140.553L568.519 152.084L567.005 156.526" stroke="white" stroke-width="1.08501" stroke-linecap="round" stroke-linejoin="round"/>
<path d="M596.669 154.534L600.828 150.011L612.484 139.504L607.839 136.66L602.063 134.087L595.312 131.817L587.745 129.867L579.464 128.245L570.608 126.967L561.266 126.036L551.593 125.468L541.711 125.283L531.708 125.481L521.722 126.079L511.875 127.103L502.428 128.516L493.92 130.256L486.405 132.28L479.916 134.562L474.522 137.055L485.918 147.957L492.424 155.354" stroke="white" stroke-width="1.08501" stroke-linecap="round" stroke-linejoin="round"/>
<path d="M833.71 1.12952L825.359 3.9059L796.585 14.9373L764.991 28.6157L735.902 42.4359L709.354 56.2745L685.363 70.0145L663.895 83.5632L644.896 96.822L628.317 109.711L614.068 122.149L602.064 134.087L592.183 145.458L596.967 147.624L590.86 155.015" stroke="white" stroke-width="1.08501" stroke-linecap="round" stroke-linejoin="round"/>
<path d="M535.814 157.119L535.048 150.11L533.534 138.227L531.708 125.481L529.533 111.907L527.01 97.5563L524.14 82.4897L520.886 66.7816L517.268 50.5244L513.284 33.8044L508.935 16.7573L504.672 1.12952" stroke="white" stroke-width="1.08501" stroke-linecap="round" stroke-linejoin="round"/>
<path d="M205.576 1.12952L187.535 8.07664L162.117 20.9713L142.475 34.7916L129.062 49.3953L122.416 64.6284L123.06 80.318L131.567 96.2853L148.53 112.32L173.669 127.695L205.906 141.701L244.615 154.164L289.101 164.917L338.561 173.796L392.128 180.65L448.861 185.333L507.803 187.721L567.911 187.715L628.124 185.216L687.362 180.181L744.477 172.599L796.095 162.918L840.789 151.585L878.368 138.887L908.656 125.116L931.621 110.55L947.209 95.4523L955.42 80.065L956.325 64.616L949.975 49.3089L936.388 34.3351L915.65 19.8607L888.04 6.16396L874.505 1.12952" stroke="white" stroke-width="1.08501" stroke-linecap="round" stroke-linejoin="round"/>
<path d="M529.374 157.119L528.051 150.536L525.216 138.733L521.719 126.079L517.543 112.623L512.672 98.4077L507.053 83.4893L500.685 67.9478L493.552 51.8756L485.654 35.3592L477.007 18.522L467.63 1.49343L467.404 1.12952" stroke="white" stroke-width="1.08501" stroke-linecap="round" stroke-linejoin="round"/>
<path d="M1112 157.156L1077.64 150.357L1033.5 142.287L990.46 135.265L948.758 129.478L908.657 125.116L870.453 122.352L834.423 121.34L795.592 121.902L760.519 123.703L729.047 126.591L701.054 130.441L676.333 135.124L664.45 140.189L649.123 143.749L644.704 144.779L632.491 148.586" stroke="white" stroke-width="1.08501" stroke-linecap="round" stroke-linejoin="round"/>
<path d="M953.924 222.617L951.193 221.395L918.138 207.149L885.97 193.971L854.776 182.063L824.766 171.642L796.095 162.918L768.92 156.076L743.468 151.282L716.171 147.821L691.658 146.013L669.79 145.699L650.409 146.704L633.395 148.882" stroke="white" stroke-width="1.08501" stroke-linecap="round" stroke-linejoin="round"/>
<path d="M450.218 149.598L433.203 147.549L413.909 146.692L392.18 147.179L367.893 149.178L340.927 152.855L315.806 157.853L289.101 164.917L260.969 173.876L231.567 184.549L201.052 196.722L169.615 210.19L142.023 222.616" stroke="white" stroke-width="1.08501" stroke-linecap="round" stroke-linejoin="round"/>
<path d="M522.835 156.952L521.147 151.264L516.989 139.591L511.875 127.103L505.716 113.832L498.496 99.8391L490.163 85.1798L480.699 69.9282L470.086 54.1645L458.325 37.9937L445.399 21.5267L431.342 4.88679L427.932 1.12952" stroke="white" stroke-width="1.08501" stroke-linecap="round" stroke-linejoin="round"/>
<path d="M602.078 153.935L603.522 152.492L615.752 142.46L630.627 132.144L626.678 128.615L621.041 125.221L614.065 122.149L605.958 119.447L596.842 117.127L586.873 115.196L576.226 113.678L565.022 112.573L553.418 111.895L541.535 111.673L529.531 111.907L517.544 112.623L505.714 113.832L494.371 115.516L484.141 117.589L475.077 120.002L467.266 122.717L460.742 125.69L455.592 128.886L470.258 139.733L482.384 150.203L486.942 154.91" stroke="white" stroke-width="1.08501" stroke-linecap="round" stroke-linejoin="round"/>
<path d="M516.259 156.693L514.536 152.276L509.126 140.781L502.428 128.516L494.373 115.516L484.909 101.838L473.966 87.5367L461.527 72.6799L447.539 57.3604L432.021 41.677L414.936 25.7343L396.356 9.64995L385.726 1.12952" stroke="white" stroke-width="1.08501" stroke-linecap="round" stroke-linejoin="round"/>
<path d="M264.918 1.12952L248.947 5.96032L221.39 16.7513L198.738 28.4738L181.358 41.0168L169.668 54.2385L164.083 68.0032L165.092 82.1443L173.182 96.5073L188.822 110.895L211.752 124.66L240.945 137.172L275.844 148.284L315.806 157.853L360.117 165.744L408.029 171.827L458.708 175.98L511.317 178.102L564.936 178.09L618.66 175.881L671.582 171.414L722.679 164.677L768.921 156.076L809.109 145.983L842.999 134.655L870.452 122.352L891.398 109.31L905.786 95.7608L913.598 81.916L914.85 67.9908L909.526 54.1584L897.696 40.5973L879.342 27.4681L854.707 15.0114L825.358 3.9059L815.789 1.12952" stroke="white" stroke-width="1.08501" stroke-linecap="round" stroke-linejoin="round"/>
<path d="M1 4.7943L6.7236 1.12952" stroke="white" stroke-width="1.08501" stroke-linecap="round" stroke-linejoin="round"/>
<path d="M837.852 222.617L842.949 221.913L918.141 207.149L982.494 189.973L1035.68 170.883L1077.64 150.357L1108.43 128.843L1112 124.87" stroke="white" stroke-width="1.08501" stroke-linecap="round" stroke-linejoin="round"/>
<path d="M477.726 154.169L466.296 154.49L453.405 156.316L439 159.827L422.977 165.213L408.032 171.827L392.131 180.65L375.342 191.503L357.771 204.2L339.521 218.532L334.615 222.616" stroke="white" stroke-width="1.08501" stroke-linecap="round" stroke-linejoin="round"/>
<path d="M745.694 222.617L739.953 217.885L721.65 203.62L704.079 190.985L687.36 180.181L671.581 171.414L656.845 164.85L641.1 159.519L626.991 156.052L614.465 154.262L603.4 153.972" stroke="white" stroke-width="1.08501" stroke-linecap="round" stroke-linejoin="round"/>
<path d="M649.593 1.12952L646.687 4.46111L633.187 21.1503L620.835 37.6605L609.631 53.8684L599.593 69.669L590.685 84.9576L582.909 99.654L576.228 113.678L570.609 126.967L565.981 139.48L562.31 151.171L560.884 156.773" stroke="white" stroke-width="1.08501" stroke-linecap="round" stroke-linejoin="round"/>
<path d="M1 210.364L29.8796 220.575L37.6736 222.617" stroke="white" stroke-width="1.08501" stroke-linecap="round" stroke-linejoin="round"/>
<path d="M509.979 156.44L508.587 153.51L502.045 142.244L493.921 130.256L484.143 117.589L472.626 104.294L459.317 90.4302L444.147 76.0733L427.097 61.303L408.117 46.2178L387.24 30.9232L364.484 15.5358L341.38 1.12952" stroke="white" stroke-width="1.08501" stroke-linecap="round" stroke-linejoin="round"/>
<path d="M592.18 145.458L586.578 143.558L580.263 141.917L573.373 140.553L565.979 139.48L558.203 138.696L550.13 138.221L541.884 138.061L533.533 138.227L525.217 138.733L516.988 139.591L509.125 140.781L502.044 142.244L495.781 143.946L490.388 145.859L485.917 147.957L482.385 150.203L479.845 152.566L478.923 154.077" stroke="white" stroke-width="1.08501" stroke-linecap="round" stroke-linejoin="round"/>
<path d="M524.385 157.97L521.463 160.401L518.21 164.596L514.626 170.754L511.32 178.102L507.806 187.721L504.135 199.443L500.308 213.072L497.837 222.617" stroke="white" stroke-width="1.08501" stroke-linecap="round" stroke-linejoin="round"/>
<path d="M501.94 156.125L494.842 156.798L488.248 156.267L466.293 154.49L465.44 154.385L439.17 151.103L421.686 152.349L402.131 155.2L380.385 159.833L360.116 165.744L338.561 173.795L315.805 183.821L292.023 195.63L267.301 209.012L243.745 222.617" stroke="white" stroke-width="1.08501" stroke-linecap="round" stroke-linejoin="round"/>
<path d="M685.76 222.617L739.953 217.885L816.902 207.347L885.969 193.971L945.225 178.374L994.442 161.006L1033.5 142.287L1062.41 122.63L1081.25 102.387L1090.16 81.9098L1089.36 61.5003L1079.03 41.4241L1059.35 21.9215L1030.52 3.20864L1026.09 1.12952" stroke="white" stroke-width="1.08501" stroke-linecap="round" stroke-linejoin="round"/>
<path d="M658.064 222.616L648.722 209.925L638.161 196.629L628.123 185.215L618.659 175.881L609.856 168.792L600.478 162.912L592.093 158.957L584.647 156.742L578.105 156.076" stroke="white" stroke-width="1.08501" stroke-linecap="round" stroke-linejoin="round"/>
<path d="M579.6 154.62L574.312 153.238L568.519 152.084L562.308 151.171L555.784 150.505L548.999 150.104L542.057 149.968L535.046 150.11L528.052 150.536L521.145 151.264L514.534 152.276L508.585 153.51L503.331 154.953" stroke="white" stroke-width="1.08501" stroke-linecap="round" stroke-linejoin="round"/>
<path d="M452.375 149.727L451.158 149.45L450.914 149.339L438.77 145.649L428.141 141.318L419.494 136.5L416.276 135.654L396.129 130.361L369.477 124.826L339.397 120.014L305.698 116.041L268.276 113.036L226.975 111.136L188.822 110.895L148.53 112.32L106.376 115.263L62.6911 119.557L17.7363 125.012L1 127.356" stroke="white" stroke-width="1.08501" stroke-linecap="round" stroke-linejoin="round"/>
<path d="M636.718 113.357L628.315 109.71L618.555 106.496L607.612 103.744L595.678 101.455L582.908 99.6537L569.495 98.3458L555.594 97.5437L541.38 97.2783L527.01 97.5561L512.674 98.4074L498.496 99.8389L484.908 101.838L472.626 104.293L461.752 107.156L452.34 110.383L444.494 113.918L438.266 117.719L433.743 121.729L451.871 132.248L467.198 142.552L479.846 152.565L481.811 154.435" stroke="white" stroke-width="1.08501" stroke-linecap="round" stroke-linejoin="round"/>
<path d="M777.532 1.12952L766.85 6.17632L739.101 20.848L713.51 35.5997L690.127 50.3023L668.955 64.8444L649.992 79.1211L633.22 93.0338L618.555 106.496L605.959 119.447L595.311 131.817L586.578 143.558L579.602 154.62L582.716 155.694" stroke="white" stroke-width="1.08501" stroke-linecap="round" stroke-linejoin="round"/>
<path d="M474.174 1.12952L467.632 1.49343L431.341 4.88679L396.355 9.64995L364.483 15.5358L335.951 22.4398L310.934 30.263L289.674 38.9006L272.381 48.26L259.316 58.2304L250.791 68.6943L247.085 79.5406L248.547 90.6399L255.488 101.85L268.276 113.036L286.577 123.685L309.594 133.328L336.874 141.855L367.893 149.178L402.131 155.2L438.996 159.827L477.896 162.986L518.207 164.597L559.299 164.59L600.478 162.912L641.102 159.519L680.42 154.386L716.171 147.821L747.382 140.097L773.913 131.391L795.59 121.902L812.344 111.808L824.105 101.27L830.82 90.4611L832.438 79.5344L828.941 68.6325L820.312 57.8972L806.499 47.4579L787.675 37.5124L764.988 28.6157L739.101 20.848L710.465 14.2278L679.515 8.7614L646.686 4.46111L612.361 1.35772L608.168 1.12952" stroke="white" stroke-width="1.08501" stroke-linecap="round" stroke-linejoin="round"/>
<path d="M500.409 156.002L503.332 154.953L495.782 143.946L486.404 132.28L475.079 120.002L461.752 107.156L446.321 93.8112L428.714 80.0342L408.899 65.9055L386.839 51.53L362.518 37.0003L335.952 22.4398L307.194 7.97165L292.006 1.12952" stroke="white" stroke-width="1.08501" stroke-linecap="round" stroke-linejoin="round"/>
<path d="M579.604 154.62L578.907 156.008" stroke="white" stroke-width="1.08501" stroke-linecap="round" stroke-linejoin="round"/>
<path d="M504.027 156.206L503.331 154.953" stroke="white" stroke-width="1.08501" stroke-linecap="round" stroke-linejoin="round"/>
<path d="M467.304 152.578L465.686 151.511L464.851 148.475L465.373 145.477L467.199 142.552L470.261 139.733L474.524 137.055L460.745 125.69L444.496 113.918L425.654 101.801L404.099 89.4121L379.778 76.8259L352.603 64.1471L322.575 51.4683L289.676 38.9006L253.925 26.5735L221.392 16.7513L187.536 8.07664L155.734 1.12952" stroke="white" stroke-width="1.08501" stroke-linecap="round" stroke-linejoin="round"/>
<path d="M458.969 151.122L457.09 150.178L452.636 146.6L450.705 145.779L447.991 144.625L434.438 138.857L432.177 138.061L413.214 131.397L410.552 130.632L388.753 124.315L384.438 118.207L383.064 112.111L384.473 106.114L356.289 96.3471L324.661 86.784L289.518 77.5294L250.792 68.6945L208.446 60.3962L169.668 54.2387L129.062 49.3955L87.0126 45.7493L43.8498 43.1826L1 41.5847" stroke="white" stroke-width="1.08501" stroke-linecap="round" stroke-linejoin="round"/>
<path d="M576.68 222.617L574.471 213.054L571.096 199.431L567.912 187.715L564.937 178.09L562.189 170.742L559.3 164.591L556.726 160.395L554.481 157.964L552.516 157.113" stroke="white" stroke-width="1.08501" stroke-linecap="round" stroke-linejoin="round"/>
<path d="M458.708 151.078L457.09 150.178L454.498 149.129L439.745 143.138L436.892 142.2L419.494 136.499L413.214 131.397L409.491 126.233L408.238 121.075L383.064 112.11L354.48 103.374L322.347 94.9647L286.578 86.9811L247.086 79.5403L203.819 72.7598L164.083 68.0029L122.416 64.6281L79.1489 62.5119L34.6117 61.5309L1 61.5186" stroke="white" stroke-width="1.08501" stroke-linecap="round" stroke-linejoin="round"/>
<path d="M466.361 152.411L465.683 151.511L464.43 150.832L449.956 142.972L448.981 139.338L449.642 135.753L451.869 132.249L455.592 128.886L438.264 117.719L418.153 106.299L395.119 94.6935L369.092 82.9895L339.986 71.2855L307.749 59.6741L272.38 48.26L233.863 37.1731L198.737 28.4738L162.116 20.9713L124.346 14.5734L85.7412 9.1687L46.597 4.64006L10.0625 1.12952" stroke="white" stroke-width="1.08501" stroke-linecap="round" stroke-linejoin="round"/>
<path d="M1112 61.8949L1089.36 61.5L1043.92 61.5124L999.471 62.4996L956.326 64.6157L914.851 67.9906L875.358 72.7474L832.439 79.5341L793.33 86.9749L757.961 94.9524L726.245 103.368L698.096 112.104L673.357 121.069L672.053 126.146L668.469 131.126L662.693 135.938L654.742 140.516L644.704 144.779L633.013 148.777L628.855 149.647L628.124 149.764L626.332 149.931L624.401 150.517" stroke="white" stroke-width="1.08501" stroke-linecap="round" stroke-linejoin="round"/>
<path d="M1112 83.1003L1090.17 81.9096L1044.05 80.2129L999.02 79.5465L955.422 80.0648L913.599 81.9157L873.898 85.2412L830.823 90.4609L791.661 96.4764L756.309 103.164L724.698 110.408L699.246 117.392L696.654 118.107L674.229 125.437L672.054 126.147L652.534 133.742L650.725 134.445L636.32 141.139L632.492 142.91L629.917 146.408L625.811 149.783L624.594 150.486" stroke="white" stroke-width="1.08501" stroke-linecap="round" stroke-linejoin="round"/>
<path d="M844.147 222.617L842.947 221.914L816.903 207.347L791.729 194.131L767.547 182.477L744.478 172.599L722.679 164.677L702.254 158.896L680.421 154.386L660.831 151.653L643.399 150.511L627.967 150.789L619.913 151.77L616.416 152.196L614.432 152.331" stroke="white" stroke-width="1.08501" stroke-linecap="round" stroke-linejoin="round"/>
<path d="M1051.49 1.12952L1030.52 3.20864L991.554 7.84829L953.176 13.358L915.65 19.8607L879.341 27.4681L844.564 36.2599L806.499 47.4579L771.582 58.9708L739.832 70.6747L711.213 82.4712L685.674 94.2493L663.144 105.916L643.52 117.398L626.679 128.615L612.483 139.504L615.753 142.46L617.598 145.458L618.067 148.475L617.198 151.461L616.467 151.961" stroke="white" stroke-width="1.08501" stroke-linecap="round" stroke-linejoin="round"/>
<path d="M1111.99 19.0402L1101.57 19.4844L1059.35 21.9214L1017.54 25.1173L976.452 29.214L936.386 34.335L897.694 40.5972L860.707 48.1119L820.31 57.8971L783.324 68.1019L749.764 78.6088L719.562 89.3072L692.649 100.098L668.936 110.889L648.32 121.6L630.627 132.144L632.888 135.728L633.497 139.338L632.488 142.91L620.24 149.758L617.196 151.461L616.883 151.887" stroke="white" stroke-width="1.08501" stroke-linecap="round" stroke-linejoin="round"/>
<path d="M612.501 1.12952L612.361 1.35772L603.28 18.4048L594.964 35.2544L587.431 51.7768L580.681 67.8675L574.714 83.4152L569.494 98.3461L565.023 112.573L561.265 126.036L558.203 138.696L555.785 150.505L554.707 157.026" stroke="white" stroke-width="1.08501" stroke-linecap="round" stroke-linejoin="round"/>
<path d="M1112 105.25L1081.26 102.387L1035.24 98.932L990.461 96.5627L947.211 95.4521L905.788 95.7606L866.574 97.6239L824.107 101.27L785.589 105.854L750.916 111.247L719.932 117.33L695.401 123.29L692.513 123.993L685.711 129.694L665.582 135.154L662.694 135.938L645.366 141.793L642.791 142.669L631.205 147.525L625.812 149.783" stroke="white" stroke-width="1.08501" stroke-linecap="round" stroke-linejoin="round"/>
<path d="M607.351 153.25L607.525 153.121L617.598 145.458L632.891 135.728L651.088 125.875L672.33 115.966L696.774 106.076L692.651 100.098L685.674 94.249L675.879 88.6285L663.893 83.563L649.992 79.1208L634.491 75.3142L617.598 72.1614L599.592 69.6688L580.681 67.8673L561.109 66.769L541.102 66.3989L520.886 66.7814L500.688 67.9475L480.698 69.928L461.526 72.6797L444.146 76.073L428.715 80.0339L415.336 84.5008L404.097 89.4119L395.121 94.6932L388.544 100.283L384.473 106.113L409.351 115.991L431.011 125.9L449.644 135.753L465.371 145.476L476.453 153.627L476.697 153.799" stroke="white" stroke-width="1.08501" stroke-linecap="round" stroke-linejoin="round"/>
<path d="M598.861 154.349L601.697 153.979L602.044 153.935H602.079L604.289 153.75L607.177 153.374L612.118 152.739L615.893 152.35L616.415 152.134L616.606 152.017L619.912 151.77L627.966 150.789L633.186 149.839L650.409 146.705L655.385 145.489L670.155 141.88L687.065 136.426L701.053 130.441L712.031 124.043L719.929 117.33L724.696 110.408L726.244 103.368L724.557 96.304L719.564 89.3075L711.213 82.4714L699.574 75.913L685.36 70.0147L668.955 64.8446L650.67 60.4208L630.802 56.756L609.629 53.8686L587.43 51.7769L564.466 50.5061L540.997 50.0741L517.267 50.5246L493.554 51.8758L470.085 54.1647L447.538 57.3606L427.096 61.3031L408.899 65.9057L393.084 71.1068L379.775 76.8261L369.093 82.9897L361.212 89.5235L356.289 96.3471L354.479 103.375L355.941 110.525L360.899 117.707L369.476 124.827L381.445 131.57L396.251 137.635L413.613 142.984L433.655 145.736L450.913 149.339L452.079 149.641L452.375 149.728L454.427 150.277L455.297 150.443L456.515 150.696L458.707 151.079L458.968 151.122L459.751 151.258L462.57 151.751L466.414 152.486L467.423 152.658L468.363 152.763L471.842 153.312L477.079 154.09L478.314 154.121L479.306 154.127L481.846 154.472L483.22 154.614" stroke="white" stroke-width="1.08501" stroke-linecap="round" stroke-linejoin="round"/>
<path d="M467.858 152.936L463.7 152.343L454.689 151.295L449.417 150.375L433.203 147.55L413.613 142.984L390.91 141.318L365.388 140.893L336.874 141.855L305.245 144.378L275.843 148.284L244.615 154.164L211.769 161.857L177.479 171.174L141.988 181.915L105.436 193.872L68.0315 206.828L29.8791 220.575L24.3467 222.617" stroke="white" stroke-width="1.08501" stroke-linecap="round" stroke-linejoin="round"/>
<path d="M454.654 150.19L454.324 150.098L454.15 150.073L447.034 147.18L443.346 146.032L428.141 141.318L424.279 140.393L406.342 136.08L396.129 130.361L388.753 124.314L360.9 117.707L329.498 111.685L294.407 106.361L255.489 101.851L212.674 98.2906L173.182 96.5074L131.567 96.2854L88.1435 97.4823L43.2407 99.9502L1 103.208" stroke="white" stroke-width="1.08501" stroke-linecap="round" stroke-linejoin="round"/>
<path d="M462.57 151.751L461.857 151.387L452.636 146.6L449.957 142.972L448.426 142.281L431.272 134.519L430.159 130.182L431.011 125.9L433.743 121.729L412.692 111.05L388.544 100.283L361.213 89.5234L330.611 78.8621L296.669 68.3921L259.316 58.2305L218.589 48.4885L181.359 41.0169L142.475 34.7917L102.27 29.7139L61.1079 25.6667L19.2673 22.52L1 21.4897" stroke="white" stroke-width="1.08501" stroke-linecap="round" stroke-linejoin="round"/>
<path d="M451.157 149.45L450.635 149.512L433.656 145.736L418.937 141.219L406.342 136.08L381.446 131.57L353.297 127.911L321.721 125.24L286.578 123.685L247.73 123.395L211.752 124.66L173.669 127.695L133.742 132.347L92.2666 138.443L49.4691 145.791L5.62755 154.194L1 155.151" stroke="white" stroke-width="1.08501" stroke-linecap="round" stroke-linejoin="round"/>
<path d="M524.382 157.97L554.479 157.964H554.549L560.656 157.711L584.647 156.742L589.779 156.31L595.468 155.841L614.466 154.262L616.467 154.003L618.154 153.781L643.398 150.511L669.789 145.698L692.945 140.022L712.726 133.606L729.045 126.591L741.797 119.094L750.914 111.247L756.307 103.164L757.959 94.9524L755.785 86.7342L749.765 78.6086L739.831 70.6744L726.088 63.0856L709.351 56.2742L690.127 50.3019L668.728 45.2057L645.52 40.9794L620.833 37.6601L594.963 35.254L568.224 33.7855L540.892 33.2981L513.283 33.8041L485.655 35.3588L458.324 37.9933L432.019 41.6766L408.115 46.2175L386.838 51.5297L368.275 57.5328L352.6 64.1468L339.987 71.2852L330.61 78.8616L324.66 86.7835L322.346 94.9646L323.877 103.294L329.497 111.685L339.396 120.014L353.296 127.911L370.589 135.037L390.909 141.318L413.908 146.692L439.17 151.103L454.688 151.294L463.7 152.343L466.414 152.485L467.301 152.578L467.806 152.664L468.102 152.849L471.842 153.312L476.696 153.799L478.314 154.12L481.845 154.472L483.22 154.614L486.943 154.91L492.423 155.354L498.217 155.823L500.409 156.002L501.939 156.125L504.027 156.205L509.977 156.44L516.257 156.693L522.834 156.952L526.992 157.118" stroke="white" stroke-width="1.08501" stroke-linecap="round" stroke-linejoin="round"/>
<path d="M1112 40.7826L1079.03 41.4243L1035.05 43.0715L991.921 45.6566L949.977 49.3091L909.528 54.1585L870.975 60.3221L828.943 68.6327L790.564 77.474L755.787 86.7348L724.558 96.304L696.775 106.077L698.097 112.105L696.653 118.108L692.513 123.994L670.957 130.392L668.469 131.126L649.802 137.863L647.679 138.628L634.371 144.459L629.917 146.408L621.531 150.906L621.148 151.116" stroke="white" stroke-width="1.08501" stroke-linecap="round" stroke-linejoin="round"/>
<path d="M612.291 152.609L612.343 152.572L618.067 148.475L633.499 139.337L651.87 130.175L673.356 121.069L672.329 115.966L668.937 110.889L663.143 105.916L654.967 101.134L644.894 96.8218L633.22 93.0336L620.155 89.7822L605.906 87.0861L590.683 84.9574L574.713 83.4149L558.15 82.4771L541.24 82.1625L524.138 82.4895L507.054 83.4891L490.161 85.1796L473.964 87.5364L459.316 90.43L446.32 93.811L435.064 97.6177L425.652 101.801L418.154 106.299L412.691 111.049L409.35 115.991L408.237 121.075L430.158 130.182L448.982 139.337L464.848 148.475L471.529 153.102L471.633 153.17" stroke="white" stroke-width="1.08501" stroke-linecap="round" stroke-linejoin="round"/>
<path d="M455.107 150.369L454.428 150.277L450.636 149.512L438.77 145.649L434.004 144.582L418.938 141.22L396.251 137.635L370.59 135.038L341.745 133.551L309.595 133.328L274 134.519L240.945 137.172L205.906 141.701L169.094 147.945L130.767 155.725L91.1532 164.85L50.4433 175.104L8.86344 186.283L1 188.498" stroke="white" stroke-width="1.08501" stroke-linecap="round" stroke-linejoin="round"/>
<path d="M1112 129.379L1108.43 128.843L1062.41 122.63L1017.41 117.379L973.722 113.295L931.62 110.549L891.398 109.309L853.402 109.723L812.344 111.808L775.183 114.973L741.798 119.095L712.03 124.043L685.708 129.694L676.331 135.124L658.238 139.64L654.741 140.516L639.449 145.433L636.108 146.507L629.253 149.406L628.853 149.647L628.314 149.808" stroke="white" stroke-width="1.08501" stroke-linecap="round" stroke-linejoin="round"/>
<path d="M1078.59 222.617L1059.54 215.916L1020.64 202.559L982.491 189.973L945.226 178.374L909.056 167.972L874.175 158.976L840.789 151.585L809.109 145.983L779.341 142.336L747.383 140.097L718.642 139.375L692.946 140.023L670.155 141.88L650.096 144.804L633.012 148.778L630.75 149.123" stroke="white" stroke-width="1.08501" stroke-linecap="round" stroke-linejoin="round"/>
<path d="M456.516 150.696L455.298 150.443L454.602 150.214L454.324 150.097L447.034 147.179L439.745 143.138L434.438 138.856L431.272 134.519L429.428 133.815L409.491 126.233L407.281 125.523L384.438 118.206L381.794 117.49L355.942 110.525L323.878 103.294L288.126 96.6303L248.547 90.6394L205.089 85.4445L165.092 82.1438L123.06 80.3174L79.3057 79.824L34.1593 80.5211L1 81.7612" stroke="white" stroke-width="1.08501" stroke-linecap="round" stroke-linejoin="round"/>
<path d="M1111.98 1H1V222.975H1111.98V1Z" stroke="white" stroke-width="1.08501" stroke-linecap="round" stroke-linejoin="round"/>
</g>
</svg>
