<svg width="224" height="281" viewBox="0 0 224 281" fill="none" xmlns="http://www.w3.org/2000/svg">
<path d="M114.987 251.899L98.9917 278.452L74.9258 279.629" stroke="white" stroke-width="1.08501" stroke-linecap="round" stroke-linejoin="round"/>
<path d="M18.708 254.099L36.1282 228.763L53.192 203.055L69.8066 177.014L85.9099 150.686L101.448 124.11L116.351 97.349L137.527 95.9547L150.904 68.8835L163.483 41.7502L181.794 39.7674L198.85 37.4592L214.543 34.8566" stroke="white" stroke-width="1.08501" stroke-linecap="round" stroke-linejoin="round"/>
<path d="M116.349 97.349L130.562 70.4248L144.048 43.3846L156.759 16.2746L175.232 14.5783L192.505 12.5721L208.461 10.2794" stroke="white" stroke-width="1.08501" stroke-linecap="round" stroke-linejoin="round"/>
<path d="M175.232 14.5786L163.482 41.7504" stroke="white" stroke-width="1.08501" stroke-linecap="round" stroke-linejoin="round"/>
<path d="M192.505 12.5717L181.793 39.767L170.205 66.9621" stroke="white" stroke-width="1.08501" stroke-linecap="round" stroke-linejoin="round"/>
<path d="M208.461 10.2794L198.848 37.4591L188.33 64.6775L176.928 91.9114L164.666 119.122L151.561 146.271L137.657 173.319L115.744 175.085L93.065 176.324L69.8047 177.014L66.1177 172.622L62.5392 168.362L59.0536 164.21L55.661 160.175L52.3613 156.247L49.1546 152.421L46.0253 148.703L42.9812 145.07L40.0146 141.538L37.1177 138.091L38.907 115.443L40.3322 92.7015L41.4011 69.8826L42.1137 46.994L42.4777 24.028L42.4855 1" stroke="white" stroke-width="1.08501" stroke-linecap="round" stroke-linejoin="round"/>
<path d="M223 7.73065L214.542 34.8562L205.154 62.059L194.852 89.3164L183.652 116.581L171.561 143.838L158.618 171.034L144.846 198.144L130.284 225.114L114.986 251.899L91.563 253.425L67.5667 254.308L43.2064 254.533L18.7067 254.099L2.08442 277.475L1 279.001" stroke="white" stroke-width="1.08501" stroke-linecap="round" stroke-linejoin="round"/>
<path d="M130.283 225.115L107.612 226.943L84.2196 228.167L60.3241 228.786L36.1265 228.763" stroke="white" stroke-width="1.08501" stroke-linecap="round" stroke-linejoin="round"/>
<path d="M144.846 198.144L122.995 200.219L100.3 201.745L76.9621 202.698L53.1904 203.054" stroke="white" stroke-width="1.08501" stroke-linecap="round" stroke-linejoin="round"/>
<path d="M158.618 171.034L137.658 173.319L122.996 200.219L107.613 226.942L91.5637 253.425L74.9259 279.629L50.4185 280.116" stroke="white" stroke-width="1.08501" stroke-linecap="round" stroke-linejoin="round"/>
<path d="M171.561 143.839L151.562 146.271L130.509 148.238L115.746 175.085L100.301 201.746L84.2206 228.166L67.5673 254.308L50.4183 280.117L25.7017 279.908" stroke="white" stroke-width="1.08501" stroke-linecap="round" stroke-linejoin="round"/>
<path d="M30.085 202.095L32.4939 183.087" stroke="white" stroke-width="1.08501" stroke-linecap="round" stroke-linejoin="round"/>
<path d="M194.852 89.316L176.928 91.9107L157.773 94.1339L137.526 95.954L123.398 122.909L108.565 149.717L93.0656 176.324L76.9623 202.698L60.3245 228.785L43.2064 254.532L25.7011 279.907L1 279.001" stroke="white" stroke-width="1.08501" stroke-linecap="round" stroke-linejoin="round"/>
<path d="M205.153 62.059L188.33 64.6771L170.205 66.9621L157.773 94.1341L144.528 121.236L130.508 148.238L108.564 149.717L85.908 150.686L80.6177 146.712L75.4668 142.855L70.4631 139.106L65.591 135.45L60.8506 131.894L56.2264 128.432L51.7261 125.055L47.3421 121.771L43.0742 118.564L45.762 95.4896L48.0702 72.3298L50.0066 49.0849L51.5557 25.7626L52.7409 2.37061" stroke="white" stroke-width="1.08501" stroke-linecap="round" stroke-linejoin="round"/>
<path d="M119.541 11.2941L132.608 10.2096L144.908 8.90063L160.422 10.0935L176.286 11.3174L192.505 12.5721" stroke="white" stroke-width="1.08501" stroke-linecap="round" stroke-linejoin="round"/>
<path d="M144.04 14.5702L156.759 16.2742" stroke="white" stroke-width="1.08501" stroke-linecap="round" stroke-linejoin="round"/>
<path d="M131.639 12.9129L144.04 14.5706L160.685 13.0833L175.232 14.5783" stroke="white" stroke-width="1.08501" stroke-linecap="round" stroke-linejoin="round"/>
<path d="M107.728 9.72134L119.052 8.82272L129.734 7.73064L139.702 6.46042L156.363 7.38987L166.898 5.68585" stroke="white" stroke-width="1.08501" stroke-linecap="round" stroke-linejoin="round"/>
<path d="M42.4858 1L43.3146 1.10836L43.8568 1.18589L43.911 1.19364L52.7412 2.37101L63.2289 3.77284L73.9645 5.20587L84.9556 6.67748L96.2024 8.1803L107.728 9.72169L119.54 11.2941L131.639 12.9128L146.48 11.6271L160.422 10.0935L173.373 8.33517L185.239 6.35222L203.938 7.03394L223 7.73098" stroke="white" stroke-width="1.08501" stroke-linecap="round" stroke-linejoin="round"/>
<path d="M96.2031 8.18034L105.808 7.45985L114.878 6.58468L123.375 5.55444L131.229 4.38483" stroke="white" stroke-width="1.08501" stroke-linecap="round" stroke-linejoin="round"/>
<path d="M42.4775 24.0281L51.5555 25.7631L60.8581 27.5292L70.3854 29.3493L80.1372 31.2084L90.137 33.1138L100.385 35.0657L110.888 37.0642L121.654 39.1167L132.707 41.2235L144.047 43.3846L163.481 41.7502" stroke="white" stroke-width="1.08501" stroke-linecap="round" stroke-linejoin="round"/>
<path d="M42.1138 46.9941L50.0066 49.0854L58.0854 51.2233L66.3656 53.4154L74.8549 55.6617L83.5534 57.97L92.4764 60.3322L101.624 62.7568L111.02 65.2431L120.663 67.7992L130.562 70.4249L150.902 68.8835L170.205 66.9626" stroke="white" stroke-width="1.08501" stroke-linecap="round" stroke-linejoin="round"/>
<path d="M84.9546 6.67729L92.8553 6.13513L100.345 5.46135L107.371 4.66351L113.885 3.74957" stroke="white" stroke-width="1.08501" stroke-linecap="round" stroke-linejoin="round"/>
<path d="M41.4009 69.8823L48.0699 72.3298L54.9017 74.8319L61.9115 77.3956L69.0918 80.0292L76.4658 82.7325L84.0256 85.4976L91.7868 88.3481L99.7493 91.2683L107.937 94.2658L116.348 97.3485" stroke="white" stroke-width="1.08501" stroke-linecap="round" stroke-linejoin="round"/>
<path d="M25.9634 220.994L27.7062 214.131L28.6976 209.716L30.0842 202.095L32.8184 187.122L32.4931 183.086L34.9794 160.639L37.1172 138.092" stroke="white" stroke-width="1.08501" stroke-linecap="round" stroke-linejoin="round"/>
<path d="M1 279.001L3.88148 273.2L4.86511 271.689L16.383 254.052L19.9461 248.599L35.7164 223.612L51.1304 198.268L66.1183 172.622L80.6183 146.712L94.5761 120.578L107.937 94.2658L120.664 67.7987L132.708 41.2231L144.04 14.5702" stroke="white" stroke-width="1.08501" stroke-linecap="round" stroke-linejoin="round"/>
<path d="M3.88037 273.2L6.67656 267.561L7.56725 266.066L10.7198 260.776L14.7398 254.022L21.1455 243.255L35.3202 218.593L49.1308 193.621L62.5387 168.362L75.4662 142.855L87.8904 117.147L99.749 91.2687L111.019 65.243L121.654 39.1167L131.638 12.9129" stroke="white" stroke-width="1.08501" stroke-linecap="round" stroke-linejoin="round"/>
<path d="M73.9653 5.20562L80.2006 4.8416L86.1183 4.36902L91.6798 3.79585L96.8539 3.12982" stroke="white" stroke-width="1.08501" stroke-linecap="round" stroke-linejoin="round"/>
<path d="M6.67725 267.561L9.40375 262.077L10.1937 260.605L13.0054 255.377L15.7397 250.288L22.3158 238.065L34.9336 213.72L47.195 189.097L59.0538 164.21L70.4632 139.106L81.3847 113.801L91.7872 88.3483L101.624 62.7565L110.888 37.064L119.54 11.2939" stroke="white" stroke-width="1.08501" stroke-linecap="round" stroke-linejoin="round"/>
<path d="M40.333 92.7014L45.7628 95.49L51.3242 98.3481L57.0328 101.284L62.8808 104.297L68.8915 107.38L75.057 110.548L81.3853 113.801L87.8917 117.147L94.5763 120.578L101.447 124.11L123.398 122.91L144.528 121.237L164.667 119.122L183.652 116.582" stroke="white" stroke-width="1.08501" stroke-linecap="round" stroke-linejoin="round"/>
<path d="M9.40479 262.077L12.046 256.748L15.2295 250.125L17.6461 245.091L23.4554 233.015L25.1053 229.436L34.5551 208.988L45.3062 184.697L55.6622 160.174L65.5922 135.45L75.0574 110.547L84.027 85.4977L92.4776 60.3319L100.386 35.0655L107.729 9.7215" stroke="white" stroke-width="1.08501" stroke-linecap="round" stroke-linejoin="round"/>
<path d="M18.708 254.099L19.9474 248.599L21.1479 243.255L22.3175 238.065L23.4561 233.015L24.5638 228.096L25.9968 224.572L34.1918 204.379L43.4711 180.413L52.3632 156.247L60.8525 131.894L68.8925 107.379L76.4679 82.7323L83.5552 57.9692L90.1391 33.1132L96.204 8.17975" stroke="white" stroke-width="1.08501" stroke-linecap="round" stroke-linejoin="round"/>
<path d="M53.1907 203.054L51.1304 198.267L49.1319 193.62L47.1955 189.096L45.3056 184.697L43.4698 180.414L41.6805 176.246L39.9377 172.195L38.2415 168.245L36.5916 164.395L34.9805 160.639" stroke="white" stroke-width="1.08501" stroke-linecap="round" stroke-linejoin="round"/>
<path d="M43.0754 118.565L38.9082 115.443" stroke="white" stroke-width="1.08501" stroke-linecap="round" stroke-linejoin="round"/>
<path d="M36.1268 228.763L35.7162 223.612L35.3212 218.593L34.9339 213.721L34.5544 208.988L34.1903 204.379L33.834 199.887L33.4855 195.526L33.1446 191.266L32.8193 187.122L36.5915 164.396L40.015 141.538L43.0747 118.565" stroke="white" stroke-width="1.08501" stroke-linecap="round" stroke-linejoin="round"/>
<path d="M63.229 3.77259L67.8144 3.57138L72.183 3.29246L76.296 2.94394L80.1379 2.51788" stroke="white" stroke-width="1.08501" stroke-linecap="round" stroke-linejoin="round"/>
<path d="M52.7412 2.37076L55.7078 2.33199L58.535 2.23895L61.2072 2.10734L63.7169 1.92145" stroke="white" stroke-width="1.08501" stroke-linecap="round" stroke-linejoin="round"/>
<path d="M42.4858 1L43.8568 1.11611L45.0496 1.2169L55.7077 2.33224L67.8143 3.57163L80.1997 4.84185L92.8563 6.13532L105.807 7.45981L119.052 8.82306L132.607 10.2096L146.48 11.6271L160.685 13.0832L176.285 11.3173L190.731 9.29563L208.461 10.2794L223 7.73098" stroke="white" stroke-width="1.08501" stroke-linecap="round" stroke-linejoin="round"/>
<path d="M45.1655 1.20898L46.4126 1.27857L61.2069 2.10742L76.2956 2.94402L91.6786 3.79593L107.371 4.66354L123.374 5.55423L139.702 6.4606L148.896 5.02757L166.897 5.68603L185.239 6.35206" stroke="white" stroke-width="1.08501" stroke-linecap="round" stroke-linejoin="round"/>
<path d="M15.229 250.125L19.5047 240.04L21.5573 235.199L24.5626 228.097L25.6393 223.318L28.4045 215.409L33.8342 199.887L41.6806 176.247L49.1553 152.421L56.2271 128.433L62.8807 104.297L69.0928 80.0295L74.8556 55.6615L80.1382 31.2082L84.956 6.67743" stroke="white" stroke-width="1.08501" stroke-linecap="round" stroke-linejoin="round"/>
<path d="M19.5039 240.04L23.0592 230.335L25.6385 223.317L26.6842 218.662L27.7066 214.131L28.7446 210.793L33.485 195.526L39.9371 172.196L46.0252 148.703L51.7261 125.055L57.032 101.284L61.9117 77.3958L66.3655 53.4151L70.3856 29.3491L73.9641 5.20575" stroke="white" stroke-width="1.08501" stroke-linecap="round" stroke-linejoin="round"/>
<path d="M46.5229 1.28668L47.5841 1.32545L63.7185 1.92188L80.1394 2.51832L96.8546 3.13026L113.887 3.74996L131.23 4.38497L148.898 5.02792" stroke="white" stroke-width="1.08501" stroke-linecap="round" stroke-linejoin="round"/>
<path d="M23.0591 230.335L25.9637 220.994L26.6841 218.662L28.7445 210.793L29.5423 206.416L33.144 191.266L38.2408 168.246L42.9811 145.07L47.342 121.771L51.3233 98.3482L54.9018 74.8323L58.0853 51.2232L60.8582 27.5291L63.2285 3.77289" stroke="white" stroke-width="1.08501" stroke-linecap="round" stroke-linejoin="round"/>
<path d="M43.8564 1.11658L44.3522 1.17085L45.1035 1.22512L45.8006 1.2637L58.5345 2.23967L72.1825 3.29317L86.117 4.36974L100.346 5.46201L114.877 6.5851L129.733 7.73145L144.907 8.90106L156.363 7.39068L173.373 8.33564L190.731 9.2961L203.937 7.03441" stroke="white" stroke-width="1.08501" stroke-linecap="round" stroke-linejoin="round"/>
</svg>
