<svg width="982" height="398" viewBox="0 0 982 398" fill="none" xmlns="http://www.w3.org/2000/svg">
<g clip-path="url(#clip0_2_1417)">
<path d="M728.939 120.525L755.651 182.029L783.031 226.058L811.401 249.075" stroke="white" stroke-width="1.08501" stroke-linecap="round" stroke-linejoin="round"/>
<path d="M630.529 111.699L657.92 164.878L685.244 224.701L713.235 262.554L741.962 283.6" stroke="white" stroke-width="1.08501" stroke-linecap="round" stroke-linejoin="round"/>
<path d="M605.876 137.488L633.423 188.596L661.047 241.608L689.228 276.166L718.088 295.477" stroke="white" stroke-width="1.08501" stroke-linecap="round" stroke-linejoin="round"/>
<path d="M654.671 98.4456L681.972 148.085L709.118 208.153L736.876 249.189L765.469 271.916" stroke="white" stroke-width="1.08501" stroke-linecap="round" stroke-linejoin="round"/>
<path d="M527.923 168.095L555.503 216.911L583.35 251.992L611.553 279.895L640.112 303.735L669.194 319.784L693.836 307.53L718.088 295.477L741.961 283.601L765.468 271.915L788.607 260.406L811.401 249.076L833.85 237.913L855.965 226.917" stroke="white" stroke-width="1.08501" stroke-linecap="round" stroke-linejoin="round"/>
<path d="M709.641 37.1857L661.248 31.1421L638.743 41.9047L629.205 49.0834L615.816 59.1672L592.454 90.0303L566.277 90.1416L540.333 121.483L515.024 142.163L491.785 151.912L468.212 161.796L444.294 171.824L420.041 182.008L395.422 192.325L370.491 182.709L345.861 171.1L321.13 141.072L296.889 123.097L272.982 107.382L247.874 117.911L222.675 136.164L197.344 159.514L171.489 177.133L145.145 191.446L121.739 179.648L95.0826 194.696L72.1439 185.469L49.4947 176.142L27.2126 167.962L0 178.079" stroke="white" stroke-width="1.08501" stroke-linecap="round" stroke-linejoin="round"/>
<path d="M527.923 168.095L502.369 205.458L476.592 242.454L450.537 274.808L424.17 302.689L397.381 322.378L370.101 336.535L342.855 324.871" stroke="white" stroke-width="1.08501" stroke-linecap="round" stroke-linejoin="round"/>
<path d="M736.252 50.2727L746.459 62.4487" stroke="white" stroke-width="1.08501" stroke-linecap="round" stroke-linejoin="round"/>
<path d="M553.063 157.656L580.732 182.664L608.435 225.937L636.504 258.492L664.863 289.422L693.834 307.53" stroke="white" stroke-width="1.08501" stroke-linecap="round" stroke-linejoin="round"/>
<path d="M630.53 111.699L605.877 137.487L580.735 182.663L555.503 216.91L530.049 243.878L504.306 269.009L478.251 298.036L451.851 319.973L425.039 335.499L397.381 322.377L370.102 308.353L343.201 294.452L316.723 282.665L290.701 274.006L263.5 290.89" stroke="white" stroke-width="1.08501" stroke-linecap="round" stroke-linejoin="round"/>
<path d="M833.849 237.914L805.479 217.424L778.044 179.527L751.243 128.185L724.253 86.7372L710.708 78.9684L696.785 70.9772L669.428 65.1118L642.549 54.9502L615.815 59.1685L589.504 65.5124L588.324 66.7367L586.799 68.3395L566.955 89.1078L565.664 90.1429L563.471 92.4022L538.006 117.7L513.131 123.722L490.192 133.204L466.92 142.82L443.336 152.581L418.772 142.476L394.831 153.26L370.546 163.166L345.86 171.102L320.907 183.411L295.542 193.751L269.798 204.246L243.61 212.727L219.38 204.091L195.317 191.436L171.488 177.134L147.949 162.832L125.121 157.646L98.7991 171.168L72.1431 185.47L44.9639 197.324" stroke="white" stroke-width="1.08501" stroke-linecap="round" stroke-linejoin="round"/>
<path d="M513.13 123.72L535.824 97.5979L560.866 79.8904" stroke="white" stroke-width="1.08501" stroke-linecap="round" stroke-linejoin="round"/>
<path d="M523.248 150.286L540.332 121.482L563.471 92.3992L565.775 90.1398L566.955 89.1048L586.8 68.3365L589.504 65.5094L604.808 55.448L612.354 50.4841L619.599 45.9543L634.914 36.3604" stroke="white" stroke-width="1.08501" stroke-linecap="round" stroke-linejoin="round"/>
<path d="M289.565 302.054L316.722 282.666L343.401 258.458L361.353 245.77L369.834 239.782L379.127 236.544L392.005 232.069L396.045 230.656L417.314 221.151L422.3 218.435L441.132 209.977L449.101 206.393" stroke="white" stroke-width="1.08501" stroke-linecap="round" stroke-linejoin="round"/>
<path d="M316.023 313.373L343.202 294.453L369.758 261.23" stroke="white" stroke-width="1.08501" stroke-linecap="round" stroke-linejoin="round"/>
<path d="M899.218 205.424L870.859 190.777L849.39 199.648L827.597 208.618L805.482 217.422L783.033 226.059L760.184 235.953L736.878 249.187L713.238 262.554L689.231 276.166L664.867 289.421L640.115 303.734L614.994 318.281L589.485 331.826L563.574 345.505L534.726 333.017L506.3 317.023L478.253 298.036L450.539 274.808L423.104 248.285L396.137 235.252L369.837 239.782L343.971 242.609L318.394 237.946L293.263 235.186L268.299 224.968L243.613 212.725L217.168 225.714L192.905 215.641L168.876 203.766L142.019 215.508L114.762 227.205" stroke="white" stroke-width="1.08501" stroke-linecap="round" stroke-linejoin="round"/>
<path d="M566.589 370.793L537.25 358.617L510.494 371.695L483.304 384.995L454.355 372.608" stroke="white" stroke-width="1.08501" stroke-linecap="round" stroke-linejoin="round"/>
<path d="M650.62 77.7869L678.3 92.2111L705.668 132.501L732.658 191.534L760.183 235.953L788.608 260.406" stroke="white" stroke-width="1.08501" stroke-linecap="round" stroke-linejoin="round"/>
<path d="M237.823 279.894L265.058 265.336L291.858 249.309L318.392 237.946L344.681 234.429L366.25 237.501" stroke="white" stroke-width="1.08501" stroke-linecap="round" stroke-linejoin="round"/>
<path d="M539.865 384.081L512.708 397.581L483.303 384.993" stroke="white" stroke-width="1.08501" stroke-linecap="round" stroke-linejoin="round"/>
<path d="M212.503 269.052L239.783 256.197L266.617 242.051L291.859 249.308L317.458 255.251L343.969 242.608L370.225 238.056L383.213 234.338" stroke="white" stroke-width="1.08501" stroke-linecap="round" stroke-linejoin="round"/>
<path d="M370.103 336.534L397.761 348.376L425.841 360.396L453.098 347.496L479.91 333.996L508.369 346.539L534.725 333.017L560.691 317.368L586.29 299.571L611.555 279.894L636.508 258.491L661.049 241.607L685.245 224.701L709.119 208.151L732.659 191.534L755.653 182.029L778.046 179.525L800.061 177.365L821.753 174.015L843.134 169.619L864.225 164.399L891.994 181.984L920.375 194.906" stroke="white" stroke-width="1.08501" stroke-linecap="round" stroke-linejoin="round"/>
<path d="M67.9136 207.15L95.0816 194.696L118.388 204.935L145.144 191.446L168.873 203.767L195.317 191.435L221.183 173.783L246.504 149.375L271.802 133.871L296.888 123.097L321.819 120.849L346.216 111.934L370.246 101.082L394.052 99.2793L403.602 108.851L418.16 123.442L442.389 133.86L465.673 124.366L488.634 114.995L511.283 105.757L535.825 97.5986L558.285 74.8715L577.662 69.2286L585.698 64.2536L586.388 63.6748L589.003 62.2503L603.439 55.0159L612.354 50.4859L622.938 47.0468L638.743 41.9048L665.376 43.4963L687.747 37.7534L714.548 47.0023L736.251 50.2745L747.593 62.3058L756.352 72.0222L756.953 72.679L783.242 99.0901L783.854 99.5798L786.725 101.572L799.191 110.443L803.576 113.559L817.555 122.396L830.31 130.454L850.622 132.558L877.857 142.842L898.124 136.887L925.704 145.891" stroke="white" stroke-width="1.08501" stroke-linecap="round" stroke-linejoin="round"/>
<path d="M981.999 164.266L953.662 155.017L933.439 163.386L912.86 172.802L891.992 181.984L870.856 190.777L843.131 169.619L815.863 144.833L794.616 142.251L767.905 104.598L761.282 94.192L742.64 64.9204L741.493 63.1285L714.548 47.0013L692.199 53.9129L665.376 43.4954L642.549 54.948L619.254 76.8738L595.77 92.6672L571.852 120.859L547.667 153.203L521.122 167.159L513.375 174.227" stroke="white" stroke-width="1.08501" stroke-linecap="round" stroke-linejoin="round"/>
<path d="M187.537 258.369L214.872 247.072L241.784 235.931L266.615 242.053L293.26 235.186L319.371 224.223L344.68 234.429L370.39 223.488L395.721 212.703L416.189 220.717" stroke="white" stroke-width="1.08501" stroke-linecap="round" stroke-linejoin="round"/>
<path d="M22.3369 187.639L49.4938 176.142L76.3057 165.38L98.7991 171.167L121.738 179.648L147.949 162.831L173.848 146.592L199.346 128.929L221.361 114.538L224.578 112.435L240.872 103.587L244.612 101.561L249.575 98.8675L259.726 94.2376L269.097 89.9636L274.306 87.5818L297.824 99.8581L321.82 120.849L346.083 143.075L370.546 163.165L395.121 172.514L419.395 162.475L443.336 152.58L468.211 161.796L493.42 171.134L516.971 160.883L532.809 145.991" stroke="white" stroke-width="1.08501" stroke-linecap="round" stroke-linejoin="round"/>
<path d="M138.677 237.446L165.99 226.461L192.902 215.642L219.38 204.09L245.224 185.058" stroke="white" stroke-width="1.08501" stroke-linecap="round" stroke-linejoin="round"/>
<path d="M592.866 357.725L566.588 370.791L539.865 384.08L510.494 371.693L481.578 359.506L454.355 372.605L425.84 360.396" stroke="white" stroke-width="1.08501" stroke-linecap="round" stroke-linejoin="round"/>
<path d="M618.72 344.881L592.865 357.725L563.571 345.504L537.249 358.615L508.367 346.539L481.577 359.506L453.096 347.496L425.038 335.498L397.758 348.376" stroke="white" stroke-width="1.08501" stroke-linecap="round" stroke-linejoin="round"/>
<path d="M577.853 144.4L605.877 137.488" stroke="white" stroke-width="1.08501" stroke-linecap="round" stroke-linejoin="round"/>
<path d="M569.014 106.703L592.453 90.0309L619.254 76.8753L646.389 73.6367L670.396 71.7668L673.957 71.4885L701.648 82.663L728.939 120.527L751.243 128.184L773.08 136.91L794.616 142.252L796.909 144.935L821.751 174.017L849.386 199.649L877.745 216.088" stroke="white" stroke-width="1.08501" stroke-linecap="round" stroke-linejoin="round"/>
<path d="M27.2134 167.962L54.0363 157.979L76.3072 165.38L102.741 154.851L125.123 157.645L142.786 147.862L151.055 143.276L165.001 135.641L176.654 129.253L185.914 124.767L201.975 116.976L216.722 114.016L224.579 112.435L247.874 117.911L271.803 133.871L296.378 163.911L320.908 183.411L345.505 193.038L370.448 202.81L395.723 212.704L420.688 202.086L445.285 191.613L469.526 181.307L493.421 171.134L511.452 171.435" stroke="white" stroke-width="1.08501" stroke-linecap="round" stroke-linejoin="round"/>
<path d="M545.209 131.209L545.632 130.875L569.016 106.701L595.773 92.6662L623.018 80.7127L650.621 77.7855L673.96 71.486L696.787 70.9741L719.348 66.1437L741.496 63.1274L762.576 81.7033L783.244 99.0881L783.856 99.5778L788.709 104.163L793.962 109.038L795.209 110.196L795.443 110.418L807.741 121.849L809.833 123.796L836.857 144.721L857.492 144.498L877.859 142.84L905.461 153.19L925.707 145.889L953.665 155.016" stroke="white" stroke-width="1.08501" stroke-linecap="round" stroke-linejoin="round"/>
<path d="M644.164 332.227L618.721 344.882L589.483 331.826L560.69 317.369L532.309 298.337L504.306 269.009L476.593 242.453L449.102 206.393" stroke="white" stroke-width="1.08501" stroke-linecap="round" stroke-linejoin="round"/>
<path d="M54.0361 157.979L80.4807 148.151L102.74 154.852L128.796 144.223L136.219 141.117L154.483 133.471L164.4 129.431L179.815 123.143L201.974 116.977L210.656 113.337L217.022 110.666L227.017 106.47L236.544 103.265L249.577 98.8683L272.983 107.383L297.825 99.8589L322.366 95.1956L346.218 111.935L370.414 133.215L394.833 153.26L419.397 162.476L444.294 171.825L469.525 181.307L482.837 186.305" stroke="white" stroke-width="1.08501" stroke-linecap="round" stroke-linejoin="round"/>
<path d="M561.135 153.338L577.852 144.401L602.36 125.525L630.529 111.701L654.67 98.4456" stroke="white" stroke-width="1.08501" stroke-linecap="round" stroke-linejoin="round"/>
<path d="M669.195 319.785L644.164 332.228L614.993 318.282L586.289 299.573L558.008 273.596L530.049 243.879L502.369 205.458L474.968 190.411L471.562 192.258L471.462 192.314L471.306 192.392L469.525 193.36L448.111 204.969L439.63 209.399L422.301 218.436L417.315 221.152L396.135 235.253L394.254 237.123L369.757 261.23L343.401 258.459L317.458 255.254L290.702 274.007L265.058 265.337L239.782 256.2L214.874 247.073L190.266 236.689L165.991 226.461L142.017 215.509L118.389 204.935L91.1763 217.111" stroke="white" stroke-width="1.08501" stroke-linecap="round" stroke-linejoin="round"/>
<path d="M80.4805 148.149L106.547 138.455L132.257 128.894L157.61 119.467L182.608 110.163L207.272 100.992L231.591 91.9542L255.587 83.028L279.26 74.2243L302.61 65.5431L325.015 72.5771L347.709 80.3569L370.681 86.8457L393.831 84.5751L417.571 104.709L440.599 97.8864L463.281 88.8824L485.652 80.0008L507.745 69.6055L529.526 62.0148L551.029 52.9885L572.243 45.1976L593.178 37.3289L616.885 45.0641L618.142 45.4759" stroke="white" stroke-width="1.08501" stroke-linecap="round" stroke-linejoin="round"/>
<path d="M298.871 83.062L301.62 84.4755L322.366 95.1936L346.573 92.6671L357.904 91.0088L370.391 89.1946L394.053 99.2782L417.571 104.71L441.478 115.628L465.674 124.365L490.193 133.202L510.149 140.403" stroke="white" stroke-width="1.08501" stroke-linecap="round" stroke-linejoin="round"/>
<path d="M728.94 120.525L705.667 132.501L681.972 148.082L657.92 164.877L633.423 188.595L608.437 225.936L583.35 251.991L558.007 273.594L532.309 298.336L506.298 317.023L479.909 333.996L451.851 319.972L424.171 302.687L396.802 282.32L369.757 261.229" stroke="white" stroke-width="1.08501" stroke-linecap="round" stroke-linejoin="round"/>
<path d="M418.773 142.473L442.391 133.859L466.921 142.818L491.785 151.911L511.095 158.79" stroke="white" stroke-width="1.08501" stroke-linecap="round" stroke-linejoin="round"/>
<path d="M302.609 65.5433L325.659 56.9622L348.075 64.8533L370.813 56.3835L393.507 64.3524L415.934 55.8047L438.884 63.7737L462.123 71.1083L485.651 80.001L509.492 88.2706L533.654 89.0719L558.285 74.8702L563.06 72.7777L575.358 67.3909L580.378 65.1871L585.408 64.2968" stroke="white" stroke-width="1.08501" stroke-linecap="round" stroke-linejoin="round"/>
<path d="M308.954 84.3743L323.244 86.2329L347.207 89.5385L370.39 89.1935L375.432 88.1918L393.83 84.5746L416.969 83.84L439.73 80.6013L463.28 88.8818L487.132 97.2627L511.284 105.755L533.655 89.0711L555.747 74.6357L574.768 67.3344L580.378 65.1863" stroke="white" stroke-width="1.08501" stroke-linecap="round" stroke-linejoin="round"/>
<path d="M325.659 56.9633L348.408 48.5045L370.813 56.3845L393.251 47.9369L415.933 55.8058L438.059 47.3582L459.907 39.022L482.824 46.7906L506.029 54.6371L529.525 62.0162L553.343 65.5556L574.768 67.3363" stroke="white" stroke-width="1.08501" stroke-linecap="round" stroke-linejoin="round"/>
<path d="M348.409 48.5047L370.858 40.1573L393.251 47.9371L415.399 39.5897L437.258 31.3648L459.908 39.0222L481.466 30.7972L504.372 38.4545L525.63 30.2407L546.621 22.127L569.76 29.6842L593.177 37.3304" stroke="white" stroke-width="1.08501" stroke-linecap="round" stroke-linejoin="round"/>
<path d="M370.857 40.1579L393.016 31.9219L415.399 39.5902L438.059 47.359L460.998 55.2278L484.226 63.1857L507.743 69.6076L531.561 74.0928L555.746 74.6383" stroke="white" stroke-width="1.08501" stroke-linecap="round" stroke-linejoin="round"/>
<path d="M686.19 37.3628L709.641 37.1848" stroke="white" stroke-width="1.08501" stroke-linecap="round" stroke-linejoin="round"/>
<path d="M393.019 31.9207L414.889 23.7847L437.26 31.3642L458.841 23.2282L481.468 30.7966L502.749 22.6829L525.632 30.2401L548.793 37.8306L569.761 29.6836" stroke="white" stroke-width="1.08501" stroke-linecap="round" stroke-linejoin="round"/>
<path d="M414.888 23.7854L436.48 15.7608L458.84 23.2289L480.142 15.2155L501.166 7.29102L523.76 14.6701L546.621 22.1271" stroke="white" stroke-width="1.08501" stroke-linecap="round" stroke-linejoin="round"/>
<path d="M279.259 74.2241L301.619 79.6555L324.246 84.1632L336.701 87.0792" stroke="white" stroke-width="1.08501" stroke-linecap="round" stroke-linejoin="round"/>
<path d="M106.547 138.455L128.796 144.22L151.056 143.274L173.85 146.591L197.345 159.513L221.185 173.781L245.226 185.056L271.103 178.311L296.379 163.909L321.131 141.07L346.085 143.074L370.415 133.213L394.355 119.1L418.162 123.441L441.479 115.628L464.462 106.39L487.133 97.2632L509.493 88.2704L531.564 74.0908L553.345 65.5543L574.804 59.6442L595.984 52.6658L602.172 54.4355" stroke="white" stroke-width="1.08501" stroke-linecap="round" stroke-linejoin="round"/>
<path d="M436.479 15.7606L457.793 7.82495L480.142 15.2152L502.747 22.6833L523.76 14.6699" stroke="white" stroke-width="1.08501" stroke-linecap="round" stroke-linejoin="round"/>
<path d="M982 164.266L961.744 174.327L941.209 184.545L920.374 194.906L899.216 205.424L877.746 216.087L855.965 226.916L827.595 208.618L800.06 177.366L775.062 139.88L773.081 136.909L772.18 135.362L746.436 91.1982L745.791 90.5972L719.346 66.1449L692.2 53.9131L669.429 65.1098L646.39 73.6353L623.017 80.7139L599.043 106.713L574.724 141.194L561.135 153.336L553.066 157.655L539.064 163.465L527.923 168.095L515.013 174.884L500.466 182.53L485.296 187.227L474.967 190.41L472.029 192.235L471.873 192.324L471.64 192.469L467.266 195.174L449.102 206.392L445.763 211.768L423.102 248.285L396.802 282.32L370.102 308.353L342.856 324.87L316.022 313.373L289.566 302.054L263.5 290.89L237.823 279.894L212.503 269.054L187.538 258.369L162.941 247.84L138.678 237.445L114.76 227.205L91.176 217.11L67.9145 207.149L44.9647 197.322L22.3377 187.639L0 178.078" stroke="white" stroke-width="1.08501" stroke-linecap="round" stroke-linejoin="round"/>
<path d="M157.609 119.469L179.814 123.142L187.693 119.836L204.8 112.668L229.464 102.707L244.712 97.0976L253.816 93.7587L273.193 87.0029L277.845 85.3778L295.241 81.193L301.619 79.6571L325.014 72.5785L348.075 64.8544L370.78 73.0349L393.752 81.2153L416.468 72.4338L439.73 80.6032L462.123 71.1094L484.227 63.1849L506.03 54.6371L527.555 46.2119L548.791 37.8311L572.242 45.199L595.982 52.6671L616.884 45.0655" stroke="white" stroke-width="1.08501" stroke-linecap="round" stroke-linejoin="round"/>
<path d="M457.795 7.82433L478.841 0L501.168 7.29012" stroke="white" stroke-width="1.08501" stroke-linecap="round" stroke-linejoin="round"/>
<path d="M255.585 83.0288L277.845 85.3772L288.563 84.9654" stroke="white" stroke-width="1.08501" stroke-linecap="round" stroke-linejoin="round"/>
<path d="M182.607 110.164L204.8 112.668L227.015 106.469" stroke="white" stroke-width="1.08501" stroke-linecap="round" stroke-linejoin="round"/>
<path d="M231.591 91.9555L253.817 93.7586L267.14 90.4419" stroke="white" stroke-width="1.08501" stroke-linecap="round" stroke-linejoin="round"/>
<path d="M207.271 100.992L229.465 102.706L243.722 99.8008" stroke="white" stroke-width="1.08501" stroke-linecap="round" stroke-linejoin="round"/>
<path d="M390.379 231.425L370.39 223.489L345.091 213.439L320.149 203.522L294.417 214.173L269.798 204.246L245.223 185.058" stroke="white" stroke-width="1.08501" stroke-linecap="round" stroke-linejoin="round"/>
<path d="M439.351 209.286L420.686 202.085L395.421 192.324L370.446 202.808L345.092 213.438L319.371 224.222L294.418 214.172L268.296 224.968L241.784 235.931L217.165 225.714L190.264 236.688L162.94 247.84" stroke="white" stroke-width="1.08501" stroke-linecap="round" stroke-linejoin="round"/>
<path d="M805.535 113.948L823.754 121.649L850.622 132.557L870.889 127.993" stroke="white" stroke-width="1.08501" stroke-linecap="round" stroke-linejoin="round"/>
<path d="M807.059 114.959L823.754 121.648L844.01 119.222" stroke="white" stroke-width="1.08501" stroke-linecap="round" stroke-linejoin="round"/>
<path d="M526.019 130.454L538.006 117.699L560.867 79.8908L577.662 69.2283" stroke="white" stroke-width="1.08501" stroke-linecap="round" stroke-linejoin="round"/>
<path d="M802.786 110.463L817.477 110.552" stroke="white" stroke-width="1.08501" stroke-linecap="round" stroke-linejoin="round"/>
<path d="M539.065 163.465L547.668 153.203L574.725 141.194L602.361 125.523L626.757 93.7693L650.62 77.7869" stroke="white" stroke-width="1.08501" stroke-linecap="round" stroke-linejoin="round"/>
<path d="M357.381 88.3714L370.681 86.8466L393.753 81.2148L416.97 83.8415L440.599 97.8874L464.461 106.391L488.636 114.994L513.132 123.72" stroke="white" stroke-width="1.08501" stroke-linecap="round" stroke-linejoin="round"/>
<path d="M516.605 172.859L521.124 167.16L539.566 139.636L545.209 131.211L545.743 130.677L565.777 90.1416L568.014 86.7136L583.262 67.5924L585.699 64.2535L586.389 63.6747L589.005 62.2502L601.971 54.5594L602.171 54.437L608.883 50.5081L618.143 45.4774L634.916 36.3621L661.249 31.1421L686.191 37.3637L687.749 37.7533L709.641 37.1857L723.788 44.1418L736.253 50.2744L746.927 62.3949L752.581 69.7628L762.575 81.7052L767.973 88.2161L789.098 113.77L793.027 118.333L815.865 144.834L836.856 144.723L864.224 164.4L885.06 157.667L905.461 153.192L933.441 163.387L961.744 174.328" stroke="white" stroke-width="1.08501" stroke-linecap="round" stroke-linejoin="round"/>
<path d="M789.876 101.539L791.289 102.006L817.478 110.554L844.012 119.224L870.89 127.994L898.125 136.887" stroke="white" stroke-width="1.08501" stroke-linecap="round" stroke-linejoin="round"/>
<path d="M469.726 193.203L470.85 192.302L471.262 192.391" stroke="white" stroke-width="1.08501" stroke-linecap="round" stroke-linejoin="round"/>
<path d="M471.494 192.258L470.848 192.303L445.283 191.613L420.04 182.008L395.121 172.514L370.49 182.709L345.504 193.037L320.15 203.522L295.542 193.75L271.101 178.313L246.503 149.375L222.674 136.164L199.346 128.929L176.652 129.252L154.482 133.47L132.255 128.896" stroke="white" stroke-width="1.08501" stroke-linecap="round" stroke-linejoin="round"/>
<path d="M545.531 131.087L571.853 120.859L599.044 106.713L626.757 93.769L654.671 98.4435L678.3 92.2108L701.65 82.6614L724.255 86.7349L746.437 91.1979L767.906 104.598L789.097 113.769L809.832 123.797L830.311 130.453L839.304 135.094L857.491 144.499L885.059 157.666L912.862 172.802L941.209 184.544" stroke="white" stroke-width="1.08501" stroke-linecap="round" stroke-linejoin="round"/>
<path d="M747.805 62.2722L758.322 73.2018L762.485 77.5314L789.876 101.538" stroke="white" stroke-width="1.08501" stroke-linecap="round" stroke-linejoin="round"/>
<path d="M418.772 142.476L403.881 128.218L394.353 119.103L370.246 101.084L346.573 92.6694L323.245 86.2363" stroke="white" stroke-width="1.08501" stroke-linecap="round" stroke-linejoin="round"/>
<path d="M274.306 87.582L283.199 85.9459L288.563 84.9665L298.87 83.0633L308.953 84.3767L324.246 84.1652L347.708 80.3587L370.78 73.0353L393.507 64.3539L416.468 72.4342L438.884 63.7753L460.999 55.2275L482.824 46.7911L504.372 38.4548L527.555 46.2123L551.028 52.9904L574.802 59.646L588.859 62.2282" stroke="white" stroke-width="1.08501" stroke-linecap="round" stroke-linejoin="round"/>
</g>
<defs>
<clipPath id="clip0_2_1417">
<rect width="982" height="397.581" fill="white"/>
</clipPath>
</defs>
</svg>
