<svg width="54" height="54" viewBox="0 0 54 54" fill="none" xmlns="http://www.w3.org/2000/svg">
<path d="M8.88754 40.6554L7.26009 36.3804L6.25546 31.7744M6.25546 31.7744L5.91429 26.9986L6.2511 22.2227L7.25283 17.6167L8.87738 13.3417M6.25546 31.7744L3.84405 31.7163L2.22095 31.6524L1.40795 31.5871M6.25546 31.7744L9.40002 31.8252L13.1863 31.8673L17.4894 31.8978L22.1554 31.9166L27.0087 31.921L31.862 31.9123L36.5281 31.8905L40.8297 31.8571L44.6145 31.8121L47.7576 31.7584L50.1676 31.6989L51.7878 31.635L52.6008 31.5349L52.6066 31.5015M1.40505 22.423L1.0029 27.0058V27.0392M30.9503 52.7924L31.2755 52.7315L31.952 52.5471L34.1544 51.965L34.828 51.7908M34.828 51.7908L35.4523 51.6747L35.8123 51.5513L37.4543 50.8008L39.1645 50.0184L39.6291 49.8064L39.9093 49.6787M34.828 51.7908L33.9555 51.8968L33.6376 51.9839L32.2409 52.3685L30.5032 52.8476M34.828 51.7908L35.8951 51.274L38.2513 50.133L38.5185 50.0039L39.4098 49.8442L40.2824 49.2272L42.9101 47.3692L43.019 47.2922L43.6287 47.1006M43.6142 6.88197L43.2818 6.65262L39.8933 4.30825L39.3939 4.13986L38.5025 3.98018L38.231 3.84953L35.882 2.71582L34.8106 2.19759M34.8106 2.19759L33.9381 2.09017L33.6158 2.00162L32.2264 1.62129L30.5743 1.16839L30.4857 1.14371M34.8106 2.19759L35.4349 2.31517L35.7949 2.43856L37.447 3.19195L39.195 3.98889L39.6087 4.1776L39.8933 4.30679M34.8106 2.19759L34.1297 2.02194L31.9404 1.44565M52.5993 31.5697L52.6066 31.5029L53 26.9884V26.9681L52.6051 22.4738L52.6008 22.455L52.5964 22.4042M52.5964 22.4042L52.5862 22.3679L51.4176 18.0145L51.4045 17.968L51.3725 17.8998L49.7001 14.3215L49.4649 13.8178L48.7143 13.6465L48.6708 13.5827L46.1476 9.88973M52.5964 22.4042L52.6037 22.4738L53 26.9869V27.0073M46.1476 9.88973L44.8381 9.70393L42.9348 9.53263L40.4856 9.38312L37.5632 9.25973L34.2633 9.16828L30.6991 9.11166L26.9985 9.09424L23.298 9.11457L19.7338 9.17263L16.4325 9.26699M46.1476 9.88973L46.8401 10.0843M46.1476 9.88973L43.0045 6.68891L42.8941 6.61052L40.2708 4.75825L39.3924 4.13841L38.8349 3.88147L35.4349 2.31372L35.1198 2.23388L34.6364 2.11194L34.301 2.02775L31.9404 1.44565M27.0087 52.9956V52.9898L27.0102 52.1697V50.5264V48.0805V44.8883V41.0415V36.6678L27.0073 31.9239V26.9884L27.0044 22.0543V17.3119L27 12.9396V9.0957L26.9956 5.90648M26.9956 5.90648V3.4605L26.9927 1.82017V1.00145L26.9898 1H26.8272L26.1957 1.00871L25.4248 1.02758L23.9077 1.84339L23.8641 1.86662L22.4298 1.92323L20.2419 3.60421L18.3517 3.71018L15.7748 6.19535L13.51 9.39183L11.6445 13.2067L10.2537 17.5151L9.39567 22.1676L9.10676 26.9971L9.39857 31.8266L10.2595 36.4791L11.6532 40.7875L13.5216 44.6024L15.7893 47.7988M26.9956 5.90648L30.0662 5.9239L33.0264 5.97906L35.7746 6.06906L38.215 6.18955L40.4842 9.38457L42.3541 13.198L43.7492 17.5049L44.6116 22.1574L44.9049 26.9869L44.6159 31.8165L43.7565 36.4704L42.3642 40.7788L40.4972 44.5951L38.231 47.793L35.7906 47.915L33.7639 50.3842L31.6457 50.4626L30.1388 52.1247L28.6013 52.1595L27.0102 52.1711L25.419 52.1595L23.8816 52.1261L22.4472 52.071L21.1609 51.9955L18.4287 50.3218L18.3677 50.284L15.7893 47.7988M26.9956 5.90648L23.9251 5.9268L20.9635 5.98342L18.2153 6.07487L15.7734 6.19826L13.7162 6.34778L11.058 9.54715L9.15322 9.71989L7.84226 9.90715L5.32196 13.6015L5.27841 13.6654L3.37947 17.8606L2.21369 22.3563L1.82171 27.0058L2.2166 31.6554L3.38528 36.151L5.28712 40.3448L6.74471 40.5073L8.88319 40.6569L11.0696 44.4543L13.5202 44.6024L16.4426 44.7243L19.744 44.8143L23.3081 44.8695L27.0087 44.8869L30.7093 44.8666L34.2734 44.8085L37.5733 44.7156L40.4943 44.5922L42.9435 44.4427L45.1284 40.6438L47.2655 40.4928L48.7216 40.3302L50.6205 36.1351L51.7863 31.6379L52.1783 26.9884L51.7834 22.3388L50.6133 17.8432L48.7114 13.6494L47.2553 13.4854L45.1183 13.333L42.3526 13.1994L39.0382 13.0891L35.2839 13.0078L31.2218 12.9585L27 12.9425L22.7782 12.9614L18.7147 13.0136L14.9589 13.0978L11.643 13.2096L8.87593 13.346M15.7893 47.7988L13.7321 47.6522L11.0725 44.4529L9.16774 44.2845L6.77955 40.5552L6.74761 40.5059L4.9503 36.2701L3.84259 31.7178L3.46803 27.0029L3.83969 22.288L4.9445 17.7343L6.7389 13.4985L6.77084 13.4477L9.15612 9.71844L12.1076 6.51616L13.7191 6.34632L16.7519 3.84082L18.3532 3.71163L18.4141 3.67389L21.145 2.00162L22.4312 1.92468L22.498 1.89855L24.545 1.11758L24.7047 1.05661M15.7893 47.7988L18.2312 47.9193L20.2579 50.3871L22.3761 50.464L23.8816 52.1247L23.9251 52.1479L25.4422 52.9666M8.88609 40.6583L11.6532 40.7904L14.9691 40.8993L18.7248 40.9791L22.7884 41.0285L27.0102 41.0444L31.232 41.0256L35.294 40.9733L39.0484 40.8906L42.3628 40.7802L45.1284 40.6467M52.6022 22.4782L52.5964 22.4434L51.782 22.3403L50.1618 22.2735L47.7518 22.2126L44.6087 22.1588L40.8239 22.1153L36.5223 22.0834L31.8562 22.0645L27.0029 22.0587L22.1496 22.0674L17.4836 22.0906L13.1805 22.1255L9.39422 22.1719L6.24965 22.2285L3.83824 22.2909L2.21514 22.3577L1.40214 22.4274M51.4016 17.9738L50.6118 17.8461L49.0526 17.7227L46.7457 17.608L43.7463 17.5078L40.1401 17.4251L36.0461 17.3641L31.6109 17.3264L26.9985 17.3148L22.3862 17.3293L17.9496 17.3699L13.8555 17.4338L10.2479 17.5195L7.24703 17.6225L4.93869 17.7387L3.37802 17.8635L2.5868 17.9927M2.59261 36.0305L3.38383 36.1554L4.9445 36.2759L7.25283 36.3876L10.2537 36.4864L13.8614 36.5676L17.9554 36.6272L22.392 36.6634L27.0044 36.6751L31.6167 36.6605L36.0519 36.6214L40.1445 36.5589L43.7507 36.4762L46.7501 36.376L49.057 36.2628L50.6162 36.1409L51.4059 36.0146M29.2924 52.9434L29.4521 52.8824L31.502 52.0985L31.5688 52.0739L32.8536 51.9984L35.5873 50.3232L35.6483 50.2855L37.2481 50.1577L40.2809 47.6508L41.8909 47.4824L44.8424 44.2801L46.1519 44.0958L48.6722 40.3999L48.7158 40.3361L49.4664 40.1662M49.4576 13.8251L49.3923 13.7307L47.5631 11.128L46.8343 10.0901L46.7225 9.97828L45.0936 8.36117L43.6099 6.88778L43.0001 6.69471L41.8793 6.51036L41.8009 6.45084L38.4981 3.98453L37.2351 3.83792L35.6352 3.71018L35.5728 3.67244L32.8391 2.00162L31.5542 1.92613L31.4875 1.90001L29.439 1.12194L29.2764 1.05952L28.5549 1.03048M24.0529 1.10016L23.4968 1.14952L21.7576 1.62855L20.1766 2.06259L20.0445 2.09888L19.998 2.12356L16.8288 3.80018L16.746 3.84373L15.4815 3.99034L12.1816 6.45955L12.1032 6.51907L10.981 6.70342L7.84081 9.90715L7.14685 10.1017M29.9457 52.8969L30.8661 52.611L32.614 52.0666L32.8594 51.9897L33.954 51.8968L33.9991 51.8735L37.1712 50.194L37.254 50.1505L38.517 50.0039L41.8184 47.5332L41.8968 47.4751L43.0175 47.2922L46.1577 44.087L46.8502 43.8954M45.1299 40.6423L46.7559 36.3673L47.7576 31.7613L48.0944 26.9855L47.7533 22.2096L46.7486 17.6037L45.1197 13.3301L42.9333 9.53409L40.2722 6.33616L37.2365 3.83357L37.1538 3.79002L33.9845 2.1163L33.9352 2.09017L32.8391 1.99726L32.5908 1.92033L30.8487 1.38032L29.9253 1.09436L29.2764 1.05516M23.4968 1.14516L23.0497 1.20178L20.4815 1.86517L19.3651 2.15404L19.1749 2.20339L18.1064 2.72017L15.5977 3.93373L15.4845 3.98889L14.5916 4.15002L13.7176 4.76696L11.0928 6.62358L10.9825 6.70197L10.3713 6.89504M31.9404 1.44565L30.9314 1.19887M31.9404 1.44565L31.2566 1.25984L30.9314 1.19887M30.9314 1.19887L30.4843 1.14226L29.9282 1.09436M23.0526 1.20178L22.7274 1.2642L20.6049 1.8013L19.3505 2.1192L18.8642 2.24259L18.5506 2.32243L18.1891 2.44727L14.7963 4.02808L14.5945 4.15147L14.0936 4.31986M14.1096 49.6903L14.6105 49.8572L14.8152 49.9821L18.208 51.56L18.5695 51.6834L19.1952 51.7995L19.3825 51.8474L19.8674 51.9723L22.0726 52.5544L22.7463 52.7373L23.0715 52.7982M28.5781 52.9652L30.0981 52.1464L30.1417 52.1232L31.576 52.0666L33.7668 50.3827L35.6555 50.2782L38.2339 47.7916L40.2896 47.6435L42.9478 44.4427L44.8511 44.2729L47.2379 40.5422L47.2698 40.4928L49.0642 36.2555L50.169 31.7018L50.5407 26.9869L50.1661 22.2721L49.0584 17.7198L47.2611 13.4839L47.2292 13.4331L44.841 9.70538L41.8866 6.506L40.2766 6.33761L38.2208 6.18955L35.641 3.70727L33.7522 3.60276L31.5615 1.92323L30.1271 1.86662L30.0836 1.84339L28.5636 1.02758L27.7927 1.01016L27.1597 1.0029H26.9956H26.9855M16.4339 9.26699L14.9618 13.0949L13.8628 17.4309L13.1834 22.1211L12.954 26.9956L13.1863 31.8702L13.8686 36.5618L14.972 40.8978L16.447 44.7258L18.2327 47.9208L20.9809 48.0093M16.4339 9.26699L18.2182 6.07342L20.2419 3.60566L22.3601 3.52727L24.6365 3.47792L26.9942 3.4605L29.3519 3.47647L31.6283 3.52437L33.0264 5.97761L34.2618 9.16828L35.2839 13.0049L36.049 17.3598L36.5237 22.079L36.6849 26.9855L36.5266 31.8934L36.0562 36.6141L35.294 40.9719L34.2749 44.81L33.0423 48.0035L31.6457 50.4611L29.3693 50.509L27.0116 50.5264L24.6539 50.5119L22.3775 50.4655L20.9809 48.0093M16.4339 9.26699L13.5115 9.39183L11.0623 9.54425L8.87883 13.3431L6.74035 13.497L5.28276 13.6625L4.52929 13.8352L4.29991 14.3288L2.62455 17.9187L2.59261 17.9869L2.5839 18.0217L1.41521 22.3882L1.40505 22.4245L1.39343 22.4942L1.0029 26.9753V27.0087L1.40069 31.5407L1.40795 31.59L1.41666 31.6249L2.5897 35.9943L2.59841 36.0276L2.6289 36.0944L4.30862 39.6886L4.538 40.1778L4.60333 40.2707L6.44274 42.888L7.16282 43.9128L7.27316 44.0232L8.91368 45.6519L10.3872 47.1166M20.9809 48.0093L23.9425 48.0645L27.0131 48.0819L30.0836 48.0616L33.0438 48.005L35.792 47.9135L37.5777 44.717L39.0513 40.8877L40.1517 36.5517L40.8311 31.86L41.0605 26.9855L40.8282 22.1124L40.1445 17.4222L39.0411 13.0877L37.5646 9.26118L35.7775 6.06761L33.7493 3.60131L31.6312 3.52437L30.1228 1.86662L28.5853 1.83323L26.9942 1.82162L25.403 1.83323M20.9809 48.0093L19.7469 44.8158L18.7263 40.9777L17.9626 36.6214L17.4894 31.9007L17.3282 26.9927L17.4865 22.0863L17.9568 17.367L18.7176 13.0107L19.7353 9.17408L20.9664 5.98197L22.3616 3.52727L23.8656 1.86807L25.403 1.83323M25.403 1.83323L26.1957 1.01016L26.9811 1.00435H26.9884H26.9927H27.0015L27.7883 1.01016L28.5839 1.83323L29.3533 3.47792L30.0676 5.9239L30.6991 9.11457L31.2232 12.957L31.6152 17.3249L31.8591 22.0616L31.9433 26.9898L31.8635 31.9181L31.6225 36.6562L31.2334 41.0256L30.7122 44.8709L30.0821 48.0645L29.3693 50.5134L28.6013 52.1624L27.8057 52.9884L27.0145 52.9942L27.0087 53L26.7387 52.9956L26.2131 52.9884L25.4422 52.971L24.7207 52.9419L24.0718 52.9027L23.5157 52.8548L23.0686 52.7997L22.0697 52.5558L19.6874 51.9679L19.3709 51.8881L18.8744 51.7632L18.5651 51.6848L15.1592 50.1127L14.8123 49.9821L14.3869 49.818L14.1082 49.6903L11.7069 48.0296L10.56 47.2356L10.3872 47.1166M25.403 1.83323L24.6379 3.47937L23.928 5.92535L23.3009 9.11602L22.7811 12.9585L22.3935 17.3264L22.1539 22.063L22.0741 26.9913L22.1568 31.9195L22.3993 36.6576L22.7913 41.027L23.3139 44.8709L23.944 48.063L24.6568 50.5119L25.4234 52.1595L26.2175 52.9855L27.0058 52.9913L27.0116 52.9971L27.2816 52.9927L27.8072 52.984L28.5781 52.9666L29.2996 52.9376L29.9486 52.8984L30.5046 52.8505L30.9518 52.7953L31.9535 52.55L34.333 51.9606L34.6509 51.8808L35.1445 51.756L35.4537 51.6776L38.8596 50.104L39.4113 49.8485L39.9107 49.6816L43.3021 47.3314L43.6302 47.1035L45.1081 45.633L46.7414 44.0087L46.8517 43.8983L47.5776 42.8648L49.4097 40.2548L49.4751 40.1619L49.7088 39.661L51.3813 36.0755L51.4117 36.0088L51.4234 35.9638L52.5891 31.606L52.5979 31.5712L52.6022 31.5247L52.608 31.5044L53 27L52.9971 26.9898H52.1797L50.5378 26.9869H48.0944H44.9034H41.0576H36.6849H31.9404L27.0058 26.9898H22.0697L17.3253 26.9942L12.9511 26.9971L9.10386 27L5.91139 27.0029L3.46513 27.0058H1.82461L1.00436 27.0102L1 27.0276L1.39489 31.5262L1.4036 31.5581L1.4065 31.5915M10.3872 47.1166L10.9984 47.3067L11.1073 47.3837L13.7394 49.2432L14.6076 49.8572L15.5004 50.0155L15.6122 50.0692L18.1267 51.2842L19.1909 51.7981L20.0634 51.904L20.1926 51.9403L21.7779 52.3758L23.5143 52.8534M7.15992 43.9114L7.85387 44.103L10.9955 47.3053L12.1178 47.4867L12.1962 47.5448L15.499 50.014L16.7635 50.1592L16.8448 50.2027L20.0198 51.8823L20.0619 51.904L21.158 51.9955L21.2509 52.0245L23.1513 52.6153L24.0688 52.8998M4.538 40.1749L5.29147 40.3433L5.33503 40.4057L7.85823 44.1001L9.16919 44.283L12.1221 47.4838L13.7336 47.6508L16.7678 50.1563L18.3691 50.2826L20.2594 50.3856L22.4487 52.0681L22.5154 52.0927L24.5668 52.8752L24.7251 52.9347M25.4263 1.02758L24.7047 1.05661M24.7047 1.05661L24.0558 1.09581L23.1354 1.38178L21.2393 1.97114L21.145 2.00017L20.0489 2.09452L19.1763 2.20194L18.5506 2.31952L16.3657 3.3284L14.7949 4.02373L14.3753 4.18631L14.0922 4.3155L11.6866 5.98197L10.5484 6.7702L10.3727 6.89213L8.8948 8.36263L7.26154 9.98554L7.14976 10.0973L6.42677 11.128L4.59317 13.7394L4.52784 13.8338" stroke="white" stroke-width="0.5" stroke-linecap="round" stroke-linejoin="round"/>
</svg>
